<?xml version="1.0" encoding="UTF-8" standalone="yes"?>
<svg xmlns="http://www.w3.org/2000/svg" xmlns:xlink="http://www.w3.org/1999/xlink" width="684.323pt" height="642.666pt" version="1.1" viewBox="1555.125 467.841 684.323 642.666">
  <!--
	Exported with Concepts: Smarter Sketching
	Version: 2744 on iOS 16.3
	https://concepts.app/
	-->
  <title>BFC21A53-F49A-455E-958D-961EE3998E51</title>
  <desc>Drawing exported from Concepts: Smarter Sketching</desc>
  <defs></defs>
  <g id="Pen" opacity="1.000">
    <path id="STROKE_51ee0048-87ae-44f1-b278-ee498e4a52d5" opacity="1.000" fill="none" stroke="#fac141" stroke-width="20.189" stroke-opacity="1.000" stroke-linecap="round" stroke-linejoin="round" d="M 1963.959 739.972 Q 1967.965 739.795 1984.338 738.666 Q 2000.711 737.537 2011.475 736.970 Q 2022.238 736.403 2053.566 736.977 Q 2084.894 737.552 2093.351 739.184 Q 2101.807 740.816 2108.302 743.789 Q 2114.796 746.762 2115.667 747.406 Q 2116.538 748.050 2118.440 750.085 Q 2120.343 752.120 2120.933 754.136 Q 2121.522 756.152 2121.752 758.451 Q 2121.981 760.750 2120.980 767.400 Q 2119.979 774.049 2118.713 777.875 Q 2117.448 781.700 2114.417 788.362 Q 2111.386 795.023 2105.458 805.202 Q 2099.530 815.380 2095.752 820.848 Q 2091.974 826.316 2085.166 834.379 Q 2078.358 842.442 2075.162 845.375 Q 2071.966 848.308 2067.765 851.369 Q 2063.563 854.431 2059.493 856.311 Q 2055.423 858.191 2047.762 859.854 Q 2047.282 859.853 2044.215 859.098 Q 2041.149 858.344 2031.901 852.925 Q 2022.653 847.505 2019.636 844.667 Q 2016.618 841.828 2011.305 835.839 Q 2005.991 829.849 2000.875 823.330 Q 1995.760 816.811 1993.898 814.295 Q 1992.036 811.780 1986.452 803.637 Q 1980.868 795.495 1977.165 789.565 Q 1973.462 783.636 1970.827 779.075 Q 1968.191 774.513 1966.896 772.183 Q 1965.600 769.853 1962.601 764.326 Q 1959.602 758.799 1957.428 754.638 Q 1955.255 750.477 1953.735 747.385 Q 1952.215 744.292 1949.669 739.127 "></path>
    <path id="STROKE_1aa1eeb0-c1e4-46b0-82b4-c12452f90b40" opacity="1.000" fill="none" stroke="#fac141" stroke-width="18.632" stroke-opacity="1.000" stroke-linecap="round" stroke-linejoin="round" d="M 1745.445 1044.750 Q 1744.725 1045.924 1744.102 1046.776 Q 1743.479 1047.628 1743.098 1048.141 Q 1742.716 1048.654 1740.619 1052.093 Q 1738.522 1055.532 1735.903 1060.866 Q 1733.283 1066.199 1732.256 1069.411 Q 1731.229 1072.623 1730.927 1074.664 Q 1730.624 1076.705 1730.781 1078.479 Q 1730.938 1080.254 1731.914 1082.683 Q 1732.889 1085.113 1734.238 1086.745 Q 1735.587 1088.376 1737.690 1089.789 Q 1739.792 1091.201 1745.806 1092.326 Q 1751.819 1093.450 1756.022 1093.194 Q 1760.225 1092.938 1763.913 1092.360 Q 1767.602 1091.782 1775.948 1089.657 Q 1784.295 1087.533 1788.893 1086.184 Q 1793.490 1084.835 1797.074 1083.895 Q 1800.659 1082.954 1809.697 1081.045 Q 1818.736 1079.135 1824.360 1078.314 Q 1829.984 1077.493 1832.970 1077.237 Q 1835.957 1076.981 1841.914 1076.816 Q 1844.930 1076.593 1851.073 1077.024 Q 1857.217 1077.456 1861.907 1078.122 Q 1866.597 1078.789 1869.608 1079.335 Q 1872.619 1079.881 1876.698 1080.777 Q 1880.778 1081.673 1885.802 1083.081 Q 1890.827 1084.490 1894.494 1085.498 Q 1898.160 1086.505 1902.454 1087.529 Q 1906.748 1088.553 1908.657 1088.926 Q 1910.566 1089.299 1918.261 1090.231 Q 1925.956 1091.163 1930.649 1091.407 Q 1935.342 1091.650 1941.189 1091.197 Q 1947.036 1090.744 1950.023 1090.144 Q 1953.011 1089.545 1956.483 1088.571 Q 1959.955 1087.597 1964.513 1085.728 Q 1969.070 1083.859 1972.981 1081.416 Q 1976.892 1078.973 1979.177 1077.074 Q 1981.462 1075.177 1982.561 1074.011 Q 1983.659 1072.846 1984.761 1071.415 Q 1985.863 1069.984 1987.624 1067.384 Q 1989.386 1064.784 1990.958 1061.789 Q 1992.530 1058.795 1993.062 1057.308 Q 1993.594 1055.822 1994.375 1052.523 Q 1995.157 1049.224 1995.380 1047.851 Q 1995.603 1046.479 1995.600 1045.140 Q 1995.597 1043.801 1995.078 1039.129 Q 1994.559 1034.457 1993.932 1031.600 Q 1993.306 1028.742 1992.963 1025.874 "></path>
    <path id="STROKE_c04d08fb-fc1c-4091-ac9f-ee9e99a2b29d" opacity="1.000" fill="none" stroke="#fac141" stroke-width="21.747" stroke-opacity="1.000" stroke-linecap="round" stroke-linejoin="round" d="M 1574.000 590.982 Q 1575.545 587.372 1583.011 573.412 Q 1590.477 559.451 1598.794 545.164 Q 1607.112 530.876 1612.460 523.229 Q 1617.809 515.583 1623.257 509.496 Q 1628.705 503.409 1632.096 500.413 Q 1635.487 497.417 1640.604 494.209 Q 1645.722 491.000 1649.096 489.699 Q 1652.469 488.398 1653.728 488.077 Q 1654.985 487.756 1656.771 487.563 Q 1658.557 487.370 1660.125 487.422 Q 1661.695 487.475 1662.206 487.427 Q 1662.718 487.380 1669.679 489.270 Q 1676.640 491.160 1682.972 494.710 Q 1689.304 498.259 1691.513 499.819 Q 1693.722 501.378 1697.573 504.360 Q 1701.424 507.342 1708.472 513.975 Q 1715.519 520.608 1721.413 527.044 Q 1727.306 533.480 1730.307 536.988 Q 1733.308 540.496 1738.020 546.433 Q 1742.731 552.371 1752.356 565.360 Q 1761.981 578.349 1765.346 582.414 "></path>
    <path id="STROKE_741c44a1-9e46-4557-bc2e-41572c414de3" opacity="1.000" fill="none" stroke="#fac141" stroke-width="29.513" stroke-opacity="1.000" stroke-linecap="round" stroke-linejoin="round" d="M 2017.700 612.039 L 2020.282 607.780 Q 2021.633 605.391 2030.261 592.583 Q 2038.890 579.776 2047.307 567.652 Q 2055.724 555.528 2063.063 545.837 Q 2070.402 536.147 2071.258 535.126 Q 2072.115 534.106 2079.857 526.003 Q 2087.600 517.901 2092.727 514.055 Q 2097.854 510.208 2100.437 508.789 Q 2103.019 507.370 2105.719 506.344 Q 2108.419 505.318 2111.741 504.635 Q 2115.064 503.952 2116.468 503.901 Q 2117.871 503.849 2119.220 503.995 Q 2120.568 504.142 2125.529 505.880 Q 2130.490 507.619 2134.074 509.804 Q 2137.657 511.989 2141.003 514.737 Q 2144.349 517.486 2149.437 522.795 Q 2154.524 528.103 2159.188 534.331 Q 2163.851 540.560 2166.029 543.808 Q 2168.207 547.057 2172.629 554.063 Q 2177.051 561.068 2180.342 566.573 Q 2183.632 572.077 2184.436 573.423 Q 2185.240 574.768 2188.508 580.729 Q 2191.777 586.689 2192.836 588.692 Q 2193.896 590.695 2197.336 597.175 Q 2199.131 599.794 2203.497 607.564 "></path>
    <path id="STROKE_6faa70d8-5120-4bc8-9af9-b479fa816f3f" opacity="1.000" fill="none" stroke="#fac141" stroke-width="10.608" stroke-opacity="1.000" stroke-linecap="round" stroke-linejoin="round" d="M 1626.820 608.293 Q 1630.083 603.325 1632.101 600.600 Q 1634.119 597.874 1635.544 595.976 Q 1636.969 594.078 1639.844 590.219 Q 1642.719 586.361 1645.119 583.289 Q 1647.520 580.217 1649.234 578.240 Q 1650.949 576.263 1652.132 575.022 Q 1653.316 573.780 1654.445 572.738 Q 1655.575 571.695 1660.609 566.593 Q 1664.141 564.206 1666.932 562.569 Q 1669.723 560.932 1672.146 559.778 Q 1674.569 558.624 1675.088 558.424 L 1676.006 557.951 Q 1676.792 557.104 1678.709 555.159 Q 1680.625 553.214 1681.837 552.079 Q 1683.050 550.944 1683.557 550.844 Q 1684.065 550.745 1685.618 550.353 Q 1687.172 549.960 1688.336 548.870 "></path>
    <path id="STROKE_89eba53b-21a1-4a5f-9ddd-a8bff07b44ed" opacity="1.000" fill="none" stroke="#fac141" stroke-width="10.007" stroke-opacity="1.000" stroke-linecap="round" stroke-linejoin="round" d="M 1686.116 549.425 Q 1696.789 575.099 1699.684 581.815 Q 1702.578 588.530 1702.577 589.305 Q 1702.576 590.080 1704.700 594.491 Q 1706.825 598.902 1709.011 604.581 "></path>
    <path id="STROKE_ec70ece4-f6e5-4511-bdc2-aa003f15b2a2" opacity="1.000" fill="none" stroke="#fac141" stroke-width="12.822" stroke-opacity="1.000" stroke-linecap="round" stroke-linejoin="round" d="M 1709.566 605.309 Q 1691.779 605.565 1677.742 605.497 Q 1663.705 605.428 1659.169 605.396 Q 1654.634 605.363 1652.792 605.176 Q 1650.951 604.989 1646.900 605.016 Q 1642.849 605.044 1635.516 605.136 "></path>
    <path id="STROKE_ceca4490-e58d-4a97-94d1-f6a1dd0335bf" opacity="1.000" fill="none" stroke="#fac141" stroke-width="11.119" stroke-opacity="1.000" stroke-linecap="round" stroke-linejoin="round" d="M 2082.639 607.009 Q 2089.960 593.718 2090.069 593.557 Q 2090.177 593.395 2095.992 582.664 Q 2101.807 571.934 2102.101 571.521 Q 2102.395 571.109 2110.159 557.091 "></path>
    <path id="STROKE_a943ea69-de36-4539-beda-828ddc44b05f" opacity="1.000" fill="none" stroke="#fac141" stroke-width="13.677" stroke-opacity="1.000" stroke-linecap="round" stroke-linejoin="round" d="M 2108.448 567.879 Q 2111.495 571.200 2115.307 575.869 Q 2119.120 580.539 2122.082 584.209 Q 2125.044 587.880 2125.062 587.938 Q 2125.081 587.996 2128.199 592.021 Q 2131.316 596.045 2133.905 599.450 Q 2136.493 602.856 2137.600 603.837 L 2145.866 613.149 "></path>
    <path id="STROKE_1c98090a-8605-412b-a0ba-529df6bbaddf" opacity="1.000" fill="none" stroke="#fac141" stroke-width="12.933" stroke-opacity="1.000" stroke-linecap="round" stroke-linejoin="round" d="M 2145.496 615.751 Q 2142.054 615.237 2135.127 614.392 Q 2128.200 613.547 2116.461 612.306 Q 2104.722 611.066 2100.379 610.596 Q 2096.036 610.126 2094.447 609.855 Q 2092.858 609.585 2088.442 609.071 Q 2084.027 608.558 2077.782 607.911 "></path>
    <path id="STROKE_81ea5c89-5eed-4a92-a83b-6e60123448ab" opacity="1.000" fill="none" stroke="#fac141" stroke-width="9.215" stroke-opacity="1.000" stroke-linecap="round" stroke-linejoin="round" d="M 1844.392 904.089 Q 1848.244 903.604 1851.383 903.417 Q 1854.521 903.231 1863.328 902.959 Q 1872.135 902.687 1877.867 902.661 Q 1883.599 902.636 1888.385 902.576 Q 1893.171 902.516 1895.386 902.696 Q 1897.600 902.876 1898.123 902.953 Q 1898.645 903.030 1899.233 903.081 Q 1899.820 903.131 1905.447 903.860 Q 1911.073 904.590 1912.578 904.635 Q 1915.072 903.903 1916.133 903.515 Q 1917.195 903.128 1918.648 902.755 Q 1920.101 902.381 1921.686 901.959 Q 1923.271 901.536 1925.843 900.759 "></path>
    <path id="STROKE_8b6970b6-d298-4be6-bc76-c9f926b448f9" opacity="1.000" fill="none" stroke="#fac141" stroke-width="11.196" stroke-opacity="1.000" stroke-linecap="round" stroke-linejoin="round" d="M 1855.354 913.594 Q 1856.167 915.489 1856.641 916.827 Q 1861.767 926.524 1863.262 929.282 Q 1864.757 932.040 1865.318 933.117 Q 1865.879 934.195 1866.396 934.988 Q 1866.913 935.780 1868.306 937.349 Q 1869.700 938.919 1872.252 941.401 Q 1874.805 943.884 1875.408 944.508 Q 1876.011 945.132 1879.267 948.347 Q 1880.235 948.797 1882.302 950.045 Q 1884.369 951.292 1890.691 955.152 "></path>
    <path id="STROKE_f15f1b33-53a5-4ef4-b075-e2b0c4181c48" opacity="1.000" fill="none" stroke="#fac141" stroke-width="12.698" stroke-opacity="1.000" stroke-linecap="round" stroke-linejoin="round" d="M 1916.546 905.962 L 1915.049 907.648 Q 1914.445 909.649 1913.273 911.135 Q 1912.102 912.621 1910.254 915.143 Q 1908.406 917.665 1905.433 921.127 Q 1902.460 924.590 1900.210 926.568 Q 1897.960 928.546 1895.432 930.764 Q 1892.904 932.983 1890.911 934.918 Q 1888.919 936.852 1888.545 936.995 Q 1888.170 937.138 1886.291 938.285 Q 1884.411 939.431 1880.839 941.345 "></path>
    <path id="STROKE_d318c598-6487-4165-8329-e7dc96e90792" opacity="1.000" fill="none" stroke="#fac141" stroke-width="10.083" stroke-opacity="1.000" stroke-linecap="round" stroke-linejoin="round" d="M 1599.217 741.347 L 1604.697 742.116 Q 1606.218 742.287 1614.771 744.078 Q 1623.323 745.869 1631.161 747.536 Q 1639.000 749.204 1643.979 750.234 Q 1648.958 751.265 1667.356 754.985 Q 1685.753 758.706 1700.051 761.568 Q 1714.349 764.430 1720.719 765.722 Q 1727.088 767.015 1734.621 768.454 Q 1742.155 769.892 1750.178 771.477 Q 1758.201 773.061 1779.214 777.123 "></path>
    <path id="STROKE_1be3ae47-484f-47e3-b44e-fdf974592132" opacity="1.000" fill="none" stroke="#fac141" stroke-width="11.290" stroke-opacity="1.000" stroke-linecap="round" stroke-linejoin="round" d="M 1783.966 782.385 L 1779.887 784.928 Q 1776.949 786.954 1765.403 795.214 Q 1753.858 803.474 1746.257 808.916 Q 1738.656 814.357 1727.316 822.662 Q 1715.977 830.967 1710.494 834.993 Q 1705.011 839.018 1693.964 847.121 Q 1682.916 855.224 1679.077 858.125 Q 1675.238 861.026 1667.202 867.178 Q 1659.166 873.331 1649.295 880.843 "></path>
    <path id="STROKE_36a7ba72-9fe5-4bbb-8d16-6aef589a2fe5" opacity="1.000" fill="none" stroke="#fac141" stroke-width="9.812" stroke-opacity="1.000" stroke-linecap="round" stroke-linejoin="round" d="M 1601.537 807.679 Q 1606.889 806.735 1607.873 806.657 Q 1608.856 806.579 1633.405 803.972 Q 1657.954 801.365 1672.870 799.603 Q 1687.787 797.840 1696.218 796.712 Q 1704.649 795.584 1709.071 794.927 Q 1713.494 794.270 1726.199 792.448 Q 1738.905 790.626 1753.158 788.386 L 1764.671 786.714 "></path>
  </g>
</svg>