<?xml version="1.0" encoding="UTF-8" standalone="yes"?>
<svg xmlns="http://www.w3.org/2000/svg" xmlns:xlink="http://www.w3.org/1999/xlink" width="524.049pt" height="526.516pt" version="1.1" viewBox="-2552.167 -2742.154 524.049 526.516">
  <!--
	Exported with Concepts: Smarter Sketching
	Version: 2744 on iOS 16.3
	https://concepts.app/
	-->
  <title>31E2E38E-8398-41CD-B3A8-35262B8301A2</title>
  <desc>Drawing exported from Concepts: Smarter Sketching</desc>
  <defs></defs>
  <g id="New_Layer_4" opacity="1.000">
    <path id="STROKE_b289b214-6707-4d80-b351-ce08fd46942d" opacity="1.000" fill="none" stroke="#fac141" stroke-width="30.549" stroke-opacity="1.000" stroke-linecap="round" stroke-linejoin="round" d="M -2379.322 -2565.087 Q -2384.738 -2558.991 -2386.572 -2557.137 Q -2388.406 -2555.283 -2390.311 -2553.153 Q -2392.215 -2551.024 -2395.050 -2547.912 Q -2397.884 -2544.801 -2401.152 -2540.370 Q -2404.419 -2535.939 -2410.199 -2526.341 Q -2415.978 -2516.743 -2419.521 -2508.319 Q -2423.064 -2499.895 -2425.548 -2491.006 Q -2428.032 -2482.116 -2429.469 -2467.241 Q -2430.906 -2452.367 -2430.220 -2443.593 Q -2429.534 -2434.819 -2428.458 -2429.455 Q -2427.383 -2424.092 -2426.226 -2419.718 Q -2425.069 -2415.345 -2422.433 -2408.552 Q -2419.797 -2401.759 -2416.089 -2395.156 Q -2412.381 -2388.554 -2410.471 -2385.858 Q -2408.561 -2383.163 -2393.125 -2369.223 Q -2377.689 -2355.283 -2363.399 -2349.092 Q -2349.110 -2342.901 -2341.487 -2341.342 Q -2333.864 -2339.784 -2321.158 -2339.282 Q -2308.452 -2338.779 -2290.225 -2342.836 Q -2271.998 -2346.893 -2254.000 -2355.878 Q -2236.002 -2364.862 -2224.019 -2374.277 Q -2212.036 -2383.692 -2206.519 -2389.213 Q -2201.002 -2394.735 -2188.455 -2411.716 Q -2175.908 -2428.698 -2169.543 -2442.195 Q -2163.177 -2455.691 -2159.139 -2471.568 Q -2155.101 -2487.444 -2155.067 -2509.197 Q -2155.033 -2530.949 -2157.579 -2541.646 Q -2160.125 -2552.341 -2163.864 -2560.671 Q -2167.602 -2569.001 -2173.011 -2576.568 Q -2178.421 -2584.135 -2185.332 -2590.590 Q -2192.242 -2597.045 -2206.098 -2604.152 Q -2219.953 -2611.259 -2227.251 -2613.150 Q -2234.549 -2615.042 -2252.307 -2615.598 Q -2270.066 -2616.155 -2279.809 -2614.202 Q -2289.552 -2612.249 -2295.655 -2610.319 Q -2301.758 -2608.390 -2313.504 -2602.582 Q -2325.249 -2596.775 -2339.828 -2586.651 Q -2354.407 -2576.528 -2387.427 -2548.242 L -2401.936 -2536.071 "></path>
  </g>
</svg>