<?xml version="1.0" encoding="UTF-8" standalone="yes"?>
<svg xmlns="http://www.w3.org/2000/svg" xmlns:xlink="http://www.w3.org/1999/xlink" width="789.060pt" height="538.302pt" version="1.1" viewBox="732.894 1359.836 789.060 538.302">
  <!--
	Exported with Concepts: Smarter Sketching
	Version: 2744 on iOS 16.3
	https://concepts.app/
	-->
  <title>BFC21A53-F49A-455E-958D-961EE3998E51</title>
  <desc>Drawing exported from Concepts: Smarter Sketching</desc>
  <defs></defs>
  <g id="Pen" opacity="1.000">
    <path id="STROKE_57a341cd-31d1-47d3-9520-6700a9c1e658" opacity="1.000" fill="none" stroke="#fac141" stroke-width="8.781" stroke-opacity="1.000" stroke-linecap="round" stroke-linejoin="round" d="M 757.179 1399.783 Q 764.234 1397.255 768.864 1395.933 Q 773.494 1394.612 782.159 1392.267 Q 790.824 1389.921 796.854 1388.431 Q 802.883 1386.941 813.386 1384.635 Q 823.888 1382.329 838.932 1379.695 Q 853.976 1377.061 861.811 1376.114 Q 869.647 1375.166 881.318 1374.275 Q 892.989 1373.384 899.640 1373.170 Q 906.290 1372.956 926.667 1374.172 Q 947.044 1375.387 962.560 1378.856 Q 978.076 1382.325 986.010 1385.385 Q 993.943 1388.445 994.896 1388.890 Q 995.848 1389.336 999.754 1391.788 Q 1003.660 1394.241 1005.376 1395.541 Q 1007.093 1396.842 1007.569 1397.183 Q 1008.045 1397.525 1017.665 1406.545 Q 1020.052 1408.294 1021.573 1409.582 Q 1023.095 1410.870 1031.629 1423.649 L 1036.360 1429.870 "></path>
    <path id="STROKE_83a790af-9ad0-4de2-8a17-3d172e54e09e" opacity="1.000" fill="none" stroke="#fac141" stroke-width="12.016" stroke-opacity="1.000" stroke-linecap="round" stroke-linejoin="round" d="M 1033.467 1425.603 Q 1032.942 1427.167 1028.195 1441.486 Q 1023.448 1455.806 1020.131 1465.383 Q 1016.814 1474.960 1014.484 1481.172 Q 1012.154 1487.383 1010.120 1492.695 Q 1008.086 1498.008 1003.469 1509.097 Q 998.852 1520.186 996.132 1526.328 Q 993.412 1532.469 990.781 1538.383 Q 988.150 1544.297 986.893 1546.934 Q 985.635 1549.571 981.793 1557.334 Q 977.952 1565.096 974.454 1571.670 Q 970.957 1578.244 964.468 1591.629 "></path>
    <path id="STROKE_1234eaff-7977-46d6-9279-b6eeec669e37" opacity="1.000" fill="none" stroke="#fac141" stroke-width="13.744" stroke-opacity="1.000" stroke-linecap="round" stroke-linejoin="round" d="M 747.102 1412.006 Q 747.572 1417.422 748.228 1422.056 Q 748.883 1426.691 751.216 1439.136 Q 753.548 1451.582 755.555 1460.661 Q 757.563 1469.739 758.943 1475.510 Q 760.323 1481.281 761.972 1487.136 Q 763.621 1492.990 766.252 1500.764 Q 768.882 1508.538 771.116 1514.118 Q 773.350 1519.698 774.704 1522.603 Q 776.057 1525.507 777.555 1528.849 Q 779.053 1532.191 782.531 1538.822 Q 786.010 1545.452 789.332 1551.031 Q 792.654 1556.609 802.338 1570.809 Q 812.023 1585.010 816.921 1591.629 "></path>
    <path id="STROKE_9de16d9a-ad66-4024-b633-4add0832ae67" opacity="1.000" fill="none" stroke="#fac141" stroke-width="16.171" stroke-opacity="1.000" stroke-linecap="round" stroke-linejoin="round" d="M 823.913 1591.051 Q 827.726 1591.168 841.441 1592.326 Q 855.156 1593.483 876.061 1594.259 Q 896.966 1595.035 904.485 1594.820 Q 912.005 1594.604 926.815 1593.250 Q 941.626 1591.896 947.000 1591.256 Q 952.374 1590.617 956.907 1589.834 Q 961.441 1589.051 963.558 1588.734 Q 965.675 1588.416 975.509 1586.783 "></path>
    <path id="STROKE_4255cd07-e478-4936-adef-6dfbaeddec04" opacity="1.000" fill="none" stroke="#fac141" stroke-width="13.429" stroke-opacity="1.000" stroke-linecap="round" stroke-linejoin="round" d="M 1014.083 1505.814 Q 1016.322 1505.681 1030.713 1505.121 Q 1045.105 1504.561 1069.505 1503.643 Q 1093.904 1502.726 1102.419 1502.596 Q 1110.934 1502.467 1123.951 1502.340 Q 1136.969 1502.213 1144.595 1502.161 Q 1152.222 1502.110 1170.936 1501.727 "></path>
    <path id="STROKE_58a4fb57-a362-4c65-8949-a4fcb892358b" opacity="1.000" fill="none" stroke="#fac141" stroke-width="20.646" stroke-opacity="1.000" stroke-linecap="round" stroke-linejoin="round" d="M 1196.106 1420.360 Q 1194.983 1424.854 1193.977 1428.675 Q 1192.971 1432.495 1190.724 1441.874 Q 1188.476 1451.252 1186.991 1460.256 Q 1185.506 1469.260 1185.054 1474.049 Q 1184.603 1478.837 1184.341 1485.239 Q 1184.078 1491.642 1184.333 1496.868 Q 1184.588 1502.094 1184.973 1505.388 Q 1185.359 1508.683 1186.225 1515.702 Q 1187.090 1522.722 1189.088 1532.252 Q 1191.086 1541.782 1192.299 1545.635 Q 1193.512 1549.488 1197.725 1559.067 Q 1201.938 1568.646 1204.908 1574.224 Q 1207.879 1579.801 1209.778 1582.953 Q 1211.676 1586.104 1215.737 1591.999 Q 1219.798 1597.893 1220.126 1598.377 Q 1220.454 1598.861 1222.072 1600.951 Q 1223.690 1603.040 1226.331 1606.020 Q 1228.971 1609.001 1231.702 1612.041 Q 1234.433 1615.081 1243.456 1626.020 "></path>
    <path id="STROKE_d05ad2cb-c9a6-4954-aca4-47da3c09df51" opacity="1.000" fill="none" stroke="#fac141" stroke-width="14.496" stroke-opacity="1.000" stroke-linecap="round" stroke-linejoin="round" d="M 1212.789 1426.182 Q 1216.941 1424.708 1218.787 1424.057 Q 1220.632 1423.407 1223.920 1422.477 Q 1227.209 1421.547 1241.855 1417.752 Q 1256.502 1413.958 1264.620 1412.072 Q 1272.738 1410.186 1279.315 1408.826 Q 1285.892 1407.466 1299.094 1405.230 Q 1312.296 1402.994 1320.677 1401.847 Q 1329.058 1400.699 1336.174 1399.925 Q 1343.290 1399.150 1353.623 1398.575 Q 1363.955 1398.000 1380.287 1398.490 Q 1396.620 1398.981 1404.746 1399.948 Q 1412.873 1400.915 1419.424 1402.074 Q 1425.976 1403.233 1435.450 1405.764 Q 1444.925 1408.294 1450.857 1410.403 Q 1456.789 1412.512 1461.562 1414.396 Q 1466.336 1416.280 1469.171 1417.564 Q 1472.006 1418.848 1474.870 1420.427 Q 1477.735 1422.006 1485.168 1426.215 Q 1492.601 1430.425 1495.208 1432.019 Q 1497.815 1433.613 1504.989 1438.043 "></path>
    <path id="STROKE_fd4651f8-c858-4f97-a419-0503b290a9d0" opacity="1.000" fill="none" stroke="#fac141" stroke-width="14.269" stroke-opacity="1.000" stroke-linecap="round" stroke-linejoin="round" d="M 1495.104 1432.800 Q 1494.738 1435.068 1493.201 1443.855 Q 1491.664 1452.642 1489.690 1461.916 Q 1487.716 1471.191 1483.676 1485.291 Q 1479.636 1499.391 1476.873 1507.408 Q 1474.110 1515.426 1471.571 1522.594 Q 1469.032 1529.763 1466.756 1535.246 Q 1464.479 1540.729 1459.676 1550.374 Q 1454.872 1560.020 1453.656 1562.357 Q 1452.439 1564.693 1449.967 1568.949 Q 1447.495 1573.204 1443.124 1580.065 Q 1438.753 1586.925 1431.631 1597.260 Q 1424.510 1607.595 1421.336 1611.947 Q 1418.163 1616.299 1414.707 1620.582 Q 1411.252 1624.865 1408.979 1627.606 Q 1406.707 1630.348 1401.658 1636.869 "></path>
    <path id="STROKE_599e8fa4-02b1-4ad9-b023-4aa1317bccbc" opacity="1.000" fill="none" stroke="#fac141" stroke-width="14.128" stroke-opacity="1.000" stroke-linecap="round" stroke-linejoin="round" d="M 1240.707 1632.204 Q 1242.578 1632.155 1274.220 1632.877 Q 1305.861 1633.600 1323.444 1633.592 Q 1341.026 1633.585 1350.036 1633.356 Q 1359.045 1633.127 1379.596 1631.889 Q 1400.146 1630.651 1406.507 1630.162 L 1415.400 1629.890 "></path>
    <path id="STROKE_4b296b43-e533-4f03-ac42-8be6ddfc314c" opacity="1.000" fill="none" stroke="#fac141" stroke-width="19.098" stroke-opacity="1.000" stroke-linecap="round" stroke-linejoin="round" d="M 959.405 1875.331 Q 962.363 1875.404 963.982 1875.525 Q 965.601 1875.647 968.961 1876.107 Q 972.321 1876.568 977.214 1877.141 Q 982.106 1877.714 984.411 1877.966 Q 986.717 1878.218 1016.723 1879.510 Q 1046.728 1880.803 1063.821 1880.324 Q 1080.913 1879.845 1093.256 1878.778 Q 1105.599 1877.710 1119.613 1875.570 Q 1133.626 1873.430 1156.362 1868.344 Q 1179.098 1863.258 1192.114 1859.358 Q 1205.130 1855.459 1217.113 1850.795 Q 1229.096 1846.131 1239.105 1841.363 Q 1249.115 1836.594 1260.437 1830.256 Q 1271.760 1823.918 1279.857 1818.318 Q 1287.955 1812.717 1293.363 1808.243 Q 1298.772 1803.769 1304.115 1798.774 Q 1309.458 1793.779 1312.347 1790.767 Q 1315.237 1787.754 1320.033 1781.532 Q 1324.829 1775.309 1327.925 1770.137 Q 1331.022 1764.965 1332.987 1760.766 Q 1334.953 1756.567 1336.373 1750.027 Q 1337.793 1743.487 1337.581 1740.348 Q 1337.369 1737.209 1336.503 1734.973 Q 1335.637 1732.738 1334.794 1731.768 Q 1333.950 1730.798 1331.904 1729.779 Q 1329.857 1728.760 1326.548 1728.425 Q 1323.239 1728.090 1322.815 1728.107 Q 1322.391 1728.124 1318.855 1728.979 Q 1315.319 1729.834 1312.126 1731.201 Q 1308.934 1732.567 1304.698 1735.061 Q 1300.462 1737.555 1297.949 1739.219 Q 1295.437 1740.883 1290.154 1745.326 Q 1284.870 1749.770 1280.694 1754.197 Q 1276.517 1758.625 1270.002 1766.830 Q 1263.488 1775.035 1259.903 1780.625 Q 1256.319 1786.215 1252.760 1792.768 Q 1249.202 1799.320 1246.660 1804.741 Q 1244.118 1810.162 1241.510 1816.159 Q 1238.901 1822.156 1236.894 1827.308 Q 1234.886 1832.460 1234.050 1834.841 Q 1233.214 1837.222 1229.280 1847.557 "></path>
  </g>
</svg>