<?xml version="1.0" encoding="UTF-8" standalone="yes"?>
<svg xmlns="http://www.w3.org/2000/svg" xmlns:xlink="http://www.w3.org/1999/xlink" width="819.547pt" height="880.645pt" version="1.1" viewBox="-675.495 -813.585 819.547 880.645">
  <!--
	Exported with Concepts: Smarter Sketching
	Version: 2744 on iOS 16.3
	https://concepts.app/
	-->
  <title>31E2E38E-8398-41CD-B3A8-35262B8301A2</title>
  <desc>Drawing exported from Concepts: Smarter Sketching</desc>
  <defs></defs>
  <g id="New_Layer_4" opacity="1.000">
    <path id="STROKE_a7ae0c04-d46d-4d94-b2cd-4810e63b3f61" opacity="1.000" fill="none" stroke="#fac141" stroke-width="38.812" stroke-opacity="1.000" stroke-linecap="round" stroke-linejoin="round" d="M -457.006 -94.068 L -441.738 -98.837 Q -420.310 -107.143 -417.063 -108.580 Q -413.816 -110.018 -405.649 -113.747 Q -397.483 -117.476 -384.001 -125.007 Q -370.519 -132.538 -362.113 -137.945 Q -353.708 -143.353 -339.651 -154.958 Q -325.594 -166.563 -310.757 -183.237 Q -295.919 -199.910 -286.307 -214.763 Q -276.695 -229.616 -268.179 -249.230 Q -259.664 -268.845 -255.451 -285.309 Q -251.239 -301.773 -249.712 -312.352 Q -248.185 -322.931 -247.813 -342.337 Q -247.440 -361.742 -248.510 -372.649 Q -249.579 -383.555 -250.314 -387.946 Q -251.049 -392.336 -253.547 -402.753 Q -256.045 -413.170 -258.170 -420.291 Q -260.294 -427.411 -262.588 -433.996 Q -264.881 -440.581 -270.911 -455.800 Q -276.941 -471.019 -279.640 -478.284 "></path>
    <path id="STROKE_2498f86b-e531-411f-bf05-0f6ec18f2f8d" opacity="1.000" fill="none" stroke="#fac141" stroke-width="35.636" stroke-opacity="1.000" stroke-linecap="round" stroke-linejoin="round" d="M -216.936 -121.893 Q -179.958 -176.650 -168.844 -194.113 Q -157.729 -211.575 -147.101 -230.524 Q -136.473 -249.473 -130.807 -261.032 Q -125.141 -272.592 -113.061 -303.474 Q -100.981 -334.355 -94.039 -363.173 Q -87.097 -391.991 -84.976 -410.736 Q -82.854 -429.481 -83.401 -456.571 Q -83.947 -483.662 -85.689 -495.961 Q -87.431 -508.259 -90.884 -522.838 Q -94.336 -537.418 -99.763 -551.399 Q -105.189 -565.381 -111.433 -576.814 Q -117.677 -588.247 -127.714 -602.289 Q -137.750 -616.330 -147.780 -627.613 Q -157.810 -638.896 -166.940 -649.926 "></path>
  </g>
</svg>