<?xml version="1.0" encoding="UTF-8" standalone="yes"?>
<svg xmlns="http://www.w3.org/2000/svg" xmlns:xlink="http://www.w3.org/1999/xlink" width="356.783pt" height="566.359pt" version="1.1" viewBox="-1507.973 -741.111 356.783 566.359">
  <!--
	Exported with Concepts: Smarter Sketching
	Version: 2744 on iOS 16.3
	https://concepts.app/
	-->
  <title>31E2E38E-8398-41CD-B3A8-35262B8301A2</title>
  <desc>Drawing exported from Concepts: Smarter Sketching</desc>
  <defs></defs>
  <g id="New_Layer_3" opacity="1.000">
    <path id="STROKE_555aa7de-f31e-43ca-8d95-84a939b3d465" opacity="1.000" fill="none" stroke="#fac141" stroke-width="48.494" stroke-opacity="1.000" stroke-linecap="round" stroke-linejoin="round" d="M -1486.998 -251.901 Q -1487.008 -254.678 -1487.226 -258.413 Q -1487.444 -262.149 -1487.522 -264.102 Q -1487.600 -266.054 -1487.287 -274.370 Q -1486.974 -282.686 -1485.817 -301.468 Q -1484.660 -320.250 -1482.827 -336.842 Q -1480.994 -353.435 -1474.578 -387.655 Q -1468.161 -421.874 -1463.191 -441.130 Q -1458.222 -460.385 -1455.198 -470.525 Q -1452.175 -480.666 -1444.131 -503.261 Q -1436.087 -525.857 -1431.156 -537.489 Q -1426.225 -549.122 -1420.347 -561.160 Q -1414.469 -573.198 -1402.077 -593.990 Q -1389.685 -614.782 -1378.939 -629.150 Q -1368.193 -643.518 -1354.893 -657.385 Q -1341.594 -671.253 -1326.265 -682.435 Q -1310.936 -693.617 -1296.247 -699.450 Q -1281.558 -705.282 -1271.386 -706.080 Q -1261.215 -706.878 -1255.855 -705.924 Q -1250.494 -704.971 -1245.016 -702.671 Q -1239.539 -700.372 -1234.507 -696.365 Q -1229.475 -692.357 -1219.828 -677.006 Q -1210.180 -661.656 -1205.135 -644.040 Q -1200.089 -626.425 -1198.146 -613.365 Q -1196.202 -600.306 -1195.386 -590.828 Q -1194.570 -581.351 -1193.998 -565.477 Q -1193.426 -549.603 -1193.403 -537.497 Q -1193.380 -525.391 -1193.896 -503.435 Q -1194.413 -481.479 -1195.952 -443.961 Q -1197.491 -406.444 -1198.432 -386.938 Q -1199.372 -367.432 -1200.516 -343.541 Q -1201.660 -319.650 -1202.676 -295.859 Q -1203.691 -272.068 -1204.338 -256.741 Q -1204.985 -241.414 -1205.283 -236.070 Q -1205.581 -230.726 -1206.050 -213.949 "></path>
    <path id="STROKE_cebc9fd1-733d-473e-a80c-5edf30ff4803" opacity="1.000" fill="none" stroke="#fac141" stroke-width="49.040" stroke-opacity="1.000" stroke-linecap="round" stroke-linejoin="round" d="M -1373.156 -229.800 Q -1370.859 -233.453 -1368.447 -236.106 "></path>
  </g>
</svg>