<?xml version="1.0" encoding="UTF-8" standalone="yes"?>
<svg width="213.898pt" height="3050.702pt" viewBox="2785.383 -2746.922 213.898 3050.702">
    <path id="STROKE_2e395ef3-23c1-4e54-ba56-fa848fbdef8b" opacity="1.000" fill="none" stroke="#fac141" stroke-width="24.325" stroke-opacity="1.000" stroke-linecap="round" stroke-linejoin="round" d="M 2897.140 -2701.026 L 2895.718 -2684.577 Q 2895.461 -2679.894 2894.062 -2653.739 Q 2892.663 -2627.584 2891.734 -2611.427 Q 2890.806 -2595.270 2889.109 -2565.145 Q 2887.412 -2535.020 2886.567 -2517.942 Q 2885.723 -2500.864 2884.913 -2472.028 Q 2884.102 -2443.192 2884.027 -2384.069 Q 2883.952 -2324.945 2884.270 -2307.654 Q 2884.587 -2290.362 2886.271 -2245.771 Q 2887.955 -2201.180 2889.529 -2168.176 Q 2891.104 -2135.171 2892.309 -2111.555 Q 2893.513 -2087.940 2895.580 -2048.778 Q 2897.646 -2009.616 2900.031 -1965.059 Q 2902.416 -1920.502 2903.820 -1897.023 Q 2905.224 -1873.544 2908.536 -1818.825 Q 2911.847 -1764.106 2914.532 -1720.614 Q 2917.217 -1677.121 2918.664 -1655.737 Q 2920.111 -1634.352 2923.749 -1586.670 Q 2927.387 -1538.988 2929.042 -1518.692 Q 2930.697 -1498.396 2934.280 -1454.107 Q 2937.864 -1409.817 2940.101 -1382.169 Q 2942.338 -1354.521 2945.985 -1305.704 Q 2949.631 -1256.886 2950.740 -1238.981 Q 2951.849 -1221.077 2954.420 -1163.261 Q 2956.992 -1105.446 2957.643 -1032.519 Q 2958.294 -959.592 2957.507 -921.466 Q 2956.719 -883.340 2955.738 -852.694 Q 2954.756 -822.047 2953.339 -790.495 Q 2951.921 -758.943 2948.516 -703.984 Q 2945.110 -649.026 2943.430 -625.760 Q 2941.751 -602.494 2939.271 -567.058 Q 2936.791 -531.623 2934.417 -498.361 Q 2932.044 -465.099 2929.619 -431.233 Q 2927.194 -397.366 2923.765 -354.488 Q 2920.337 -311.610 2914.099 -250.959 Q 2907.860 -190.309 2905.100 -167.514 Q 2902.340 -144.720 2897.221 -108.594 Q 2892.102 -72.467 2884.930 -29.643 Q 2877.757 13.182 2871.172 48.106 Q 2864.587 83.029 2857.715 115.966 Q 2850.843 148.902 2847.532 164.568 Q 2844.222 180.234 2838.754 206.795 Q 2833.287 233.356 2827.604 262.235 "></path>
</svg>
