<?xml version="1.0" encoding="UTF-8" standalone="no"?>
<!DOCTYPE svg PUBLIC "-//W3C//DTD SVG 20010904//EN"
              "http://www.w3.org/TR/2001/REC-SVG-20010904/DTD/svg10.dtd">

<svg xmlns="http://www.w3.org/2000/svg"
     width="8.36667in" height="11.3in"
     viewBox="0 0 753 1017">
  <path id="Selection #1"
        fill="none" stroke="black" stroke-width="1"
        d="M 185.00,577.00
           C 185.00,577.00 215.00,600.65 215.00,600.65
             215.00,600.65 265.00,638.88 265.00,638.88
             265.00,638.88 406.00,744.00 406.00,744.00
             406.00,744.00 492.00,806.15 492.00,806.15
             492.00,806.15 543.00,843.02 543.00,843.02
             543.00,843.02 649.00,916.98 649.00,916.98
             649.00,916.98 684.00,941.14 684.00,941.14
             689.65,945.17 696.18,948.87 700.82,954.01
             720.24,975.55 709.20,1011.66 680.00,1016.00
             677.34,1016.39 674.69,1016.88 672.00,1016.68
             668.81,1016.43 663.99,1015.64 661.00,1014.56
             651.76,1011.23 630.19,995.14 621.00,988.72
             621.00,988.72 521.00,919.42 521.00,919.42
             394.77,830.10 270.31,738.27 148.00,643.65
             148.00,643.65 38.00,554.40 38.00,554.40
             19.43,539.55 -0.31,532.28 0.00,505.00
             0.14,492.63 5.88,482.82 16.00,475.77
             21.84,471.71 25.10,472.17 28.10,468.73
             28.10,468.73 37.29,456.00 37.29,456.00
             37.29,456.00 62.83,428.00 62.83,428.00
             62.83,428.00 95.09,392.00 95.09,392.00
             95.09,392.00 104.91,382.00 104.91,382.00
             104.91,382.00 147.91,337.04 147.91,337.04
             147.91,337.04 162.00,322.00 162.00,322.00
             162.00,322.00 173.00,311.96 173.00,311.96
             173.00,311.96 211.00,275.09 211.00,275.09
             254.59,234.48 299.01,194.79 344.00,155.72
             385.12,120.01 426.49,84.26 469.00,50.20
             469.00,50.20 510.00,19.14 510.00,19.14
             524.58,8.71 535.15,0.03 554.00,0.00
             554.00,0.00 559.00,0.00 559.00,0.00
             580.88,0.10 601.56,15.50 608.91,36.00
             611.79,44.04 612.09,50.63 612.00,59.00
             611.82,73.88 604.21,89.06 593.00,98.70
             593.00,98.70 570.00,115.15 570.00,115.15
             540.97,136.23 513.19,159.73 486.00,183.13
             486.00,183.13 370.00,283.17 370.00,283.17
             370.00,283.17 270.00,375.09 270.00,375.09
             270.00,375.09 251.00,393.96 251.00,393.96
             251.00,393.96 241.00,403.01 241.00,403.01
             241.00,403.01 230.96,414.00 230.96,414.00
             230.96,414.00 207.91,438.00 207.91,438.00
             207.91,438.00 178.09,469.00 178.09,469.00
             178.09,469.00 124.00,529.00 124.00,529.00
             131.73,531.03 134.41,528.77 142.00,526.87
             142.00,526.87 170.00,520.21 170.00,520.21
             170.00,520.21 282.00,496.42 282.00,496.42
             282.00,496.42 402.00,470.58 402.00,470.58
             402.00,470.58 577.00,430.58 577.00,430.58
             577.00,430.58 673.00,408.58 673.00,408.58
             673.00,408.58 722.00,399.00 722.00,399.00
             730.85,398.90 737.15,399.74 743.91,406.18
             758.19,419.79 755.16,445.01 737.00,453.67
             737.00,453.67 689.00,464.88 689.00,464.88
             689.00,464.88 585.00,488.65 585.00,488.65
             585.00,488.65 346.00,542.79 346.00,542.79
             346.00,542.79 237.00,565.79 237.00,565.79
             237.00,565.79 204.00,572.79 204.00,572.79
             204.00,572.79 185.00,577.00 185.00,577.00 Z" />
</svg>
