<?xml version="1.0" encoding="UTF-8" standalone="yes"?>
<svg xmlns="http://www.w3.org/2000/svg" xmlns:xlink="http://www.w3.org/1999/xlink" width="1133.555pt" height="913.397pt" version="1.1" viewBox="192.047 -1165.563 1133.555 913.397">
  <!--
	Exported with Concepts: Smarter Sketching
	Version: 2744 on iOS 16.3
	https://concepts.app/
	-->
  <title>31E2E38E-8398-41CD-B3A8-35262B8301A2</title>
  <desc>Drawing exported from Concepts: Smarter Sketching</desc>
  <defs></defs>
  <g id="New_Layer_4" opacity="1.000">
    <path id="STROKE_566841e6-cdf2-4366-a202-87062cbb306b" opacity="1.000" fill="none" stroke="#fac141" stroke-width="41.862" stroke-opacity="1.000" stroke-linecap="round" stroke-linejoin="round" d="M 315.127 -581.938 L 323.048 -590.522 Q 326.925 -594.699 340.587 -608.124 Q 354.249 -621.549 367.299 -633.731 Q 380.349 -645.912 398.989 -660.598 Q 417.629 -675.284 435.785 -687.225 Q 453.941 -699.166 477.200 -711.819 Q 500.459 -724.471 529.699 -737.261 Q 558.940 -750.052 577.195 -756.642 Q 595.451 -763.232 643.315 -776.391 Q 691.178 -789.550 720.164 -795.122 Q 749.150 -800.695 769.227 -803.510 Q 789.303 -806.324 826.914 -809.669 Q 864.525 -813.013 908.850 -814.550 Q 953.176 -816.087 975.868 -816.405 Q 998.561 -816.723 1029.903 -817.171 Q 1061.245 -817.620 1098.537 -818.830 Q 1135.828 -820.040 1165.600 -821.142 L 1191.771 -821.634 "></path>
  </g>
</svg>