<?xml version="1.0" encoding="UTF-8" standalone="yes"?>
<svg xmlns="http://www.w3.org/2000/svg" xmlns:xlink="http://www.w3.org/1999/xlink" width="348.476pt" height="181.229pt" version="1.1" viewBox="-69.074 672.882 348.476 181.229">
    <path id="left-eye" opacity="1.000" fill="currentColor" stroke="#fac141" stroke-width="19.615" stroke-opacity="1.000" stroke-linecap="round" stroke-linejoin="round" d="M -8.660 719.173 Q -9.029 718.187 -9.465 716.407 Q -9.900 714.628 -10.202 713.479 Q -10.503 712.330 -11.492 708.871 Q -12.481 705.411 -14.430 700.500 Q -16.379 695.588 -18.317 692.749 Q -20.255 689.911 -21.801 688.574 Q -23.346 687.238 -24.805 686.675 Q -26.263 686.113 -27.212 686.068 Q -28.162 686.023 -28.845 686.071 Q -29.528 686.119 -30.896 686.677 Q -32.263 687.235 -33.311 687.967 Q -34.359 688.698 -35.214 689.499 Q -36.068 690.300 -37.831 692.592 Q -39.594 694.884 -41.882 699.323 Q -44.171 703.763 -46.288 710.455 Q -48.405 717.147 -49.249 721.221 Q -50.093 725.295 -51.104 732.533 Q -52.114 739.771 -52.509 744.095 Q -52.904 748.419 -53.218 762.018 Q -53.533 775.618 -52.652 786.726 Q -51.771 797.834 -50.864 803.051 Q -49.957 808.267 -46.644 817.596 Q -43.330 826.925 -41.553 829.407 Q -39.776 831.890 -37.389 833.572 Q -35.001 835.254 -33.999 835.476 Q -32.998 835.698 -32.165 835.586 Q -31.332 835.474 -30.007 834.950 Q -28.682 834.426 -26.495 832.682 Q -24.308 830.938 -22.607 828.832 Q -20.905 826.726 -20.038 825.402 Q -19.170 824.078 -18.745 823.391 Q -18.320 822.703 -16.277 818.409 Q -14.233 814.114 -11.077 802.490 Q -7.921 790.866 -6.911 783.865 Q -5.901 776.864 -5.264 762.316 Q -4.627 747.769 -4.997 739.871 Q -5.366 731.974 -5.694 728.300 Q -6.021 724.626 -6.511 720.522 Q -7.000 716.419 -10.060 695.687 "></path>
    <path id="right-eye" opacity="1.000" fill="currentColor" stroke="#fac141" stroke-width="18.446" stroke-opacity="1.000" stroke-linecap="round" stroke-linejoin="round" d="M 258.845 725.922 L 258.765 725.031 Q 258.557 723.359 258.458 722.292 Q 258.360 721.225 257.263 714.995 Q 256.166 708.764 254.955 704.458 Q 253.744 700.151 252.481 697.382 Q 251.218 694.612 250.254 693.142 Q 249.291 691.671 247.851 690.230 Q 246.411 688.788 245.097 688.031 Q 243.784 687.275 242.706 687.038 Q 241.629 686.802 240.869 686.859 Q 240.109 686.917 239.538 687.047 Q 238.968 687.178 237.333 688.029 Q 235.699 688.880 234.325 690.167 Q 232.951 691.453 231.860 692.874 Q 230.769 694.294 228.813 698.021 Q 226.857 701.748 225.093 707.688 Q 223.329 713.628 222.694 717.170 Q 222.059 720.711 221.479 725.539 Q 220.898 730.366 220.575 735.746 Q 220.251 741.126 220.206 748.677 Q 220.161 756.227 221.568 771.967 Q 222.974 787.706 223.602 790.906 Q 224.231 794.106 225.757 799.284 Q 227.282 804.461 228.971 807.682 Q 230.660 810.903 231.881 812.287 Q 233.102 813.671 234.056 814.344 Q 235.010 815.016 235.300 815.140 Q 235.590 815.264 237.094 815.123 Q 238.599 814.981 239.109 814.793 Q 239.620 814.604 241.494 813.280 Q 243.368 811.957 244.903 810.140 Q 246.439 808.323 248.697 804.269 Q 250.955 800.214 254.374 789.478 Q 257.793 778.742 259.309 770.444 Q 260.824 762.145 261.914 752.604 Q 263.003 743.063 263.496 735.342 Q 263.989 727.621 264.141 722.734 Q 264.292 717.847 264.310 715.021 Q 264.327 712.194 264.286 702.075 "></path>
</svg>
