<?xml version="1.0" encoding="UTF-8" standalone="yes"?>
<svg xmlns="http://www.w3.org/2000/svg" xmlns:xlink="http://www.w3.org/1999/xlink" width="1362.832pt" height="1650.630pt" version="1.1" viewBox="1503.514 1277.302 1362.832 1650.630">
  <!--
	Exported with Concepts: Smarter Sketching
	Version: 2744 on iOS 16.3
	https://concepts.app/
	-->
  <title>BFC21A53-F49A-455E-958D-961EE3998E51</title>
  <desc>Drawing exported from Concepts: Smarter Sketching</desc>
  <defs></defs>
  <g id="Pen" opacity="1.000">
    <path id="STROKE_ae5fdd5e-ecb3-40a4-9b52-61f022f495a9" opacity="1.000" fill="none" stroke="#fac141" stroke-width="26.461" stroke-opacity="1.000" stroke-linecap="round" stroke-linejoin="round" d="M 2169.729 1561.024 Q 2160.729 1549.709 2155.581 1543.832 Q 2150.432 1537.954 2145.636 1533.313 Q 2140.840 1528.671 2135.757 1524.712 Q 2130.675 1520.753 2127.582 1518.853 Q 2124.490 1516.954 2116.958 1513.590 Q 2109.426 1510.227 2105.423 1509.190 Q 2101.419 1508.153 2094.475 1507.392 Q 2087.531 1506.630 2079.537 1507.230 Q 2071.542 1507.830 2066.316 1509.242 Q 2061.090 1510.653 2056.164 1512.670 Q 2051.238 1514.686 2048.079 1516.462 Q 2044.919 1518.237 2043.958 1518.819 Q 2042.996 1519.400 2032.338 1528.952 Q 2021.680 1538.505 2012.223 1552.993 Q 2002.766 1567.481 2001.431 1570.604 Q 2000.096 1573.727 1999.831 1574.267 Q 1999.566 1574.806 1996.288 1586.530 Q 1993.009 1598.253 1992.039 1606.274 Q 1991.069 1614.294 1991.420 1625.481 Q 1991.772 1636.667 1993.407 1644.782 Q 1995.042 1652.897 1998.000 1660.842 Q 2000.957 1668.787 2004.982 1675.758 Q 2009.007 1682.729 2013.130 1687.656 Q 2017.253 1692.583 2022.520 1696.974 Q 2027.787 1701.366 2033.359 1704.503 Q 2038.930 1707.641 2048.145 1710.009 Q 2057.359 1712.376 2066.110 1712.217 Q 2074.861 1712.058 2080.726 1710.740 Q 2086.590 1709.422 2091.735 1707.355 Q 2096.879 1705.287 2102.264 1702.233 Q 2107.649 1699.180 2117.805 1690.116 Q 2127.961 1681.053 2132.425 1675.475 Q 2136.888 1669.897 2140.547 1663.926 Q 2144.206 1657.956 2150.664 1642.116 Q 2157.122 1626.276 2160.421 1613.066 Q 2163.720 1599.856 2164.925 1593.138 Q 2166.129 1586.419 2166.675 1582.020 Q 2167.221 1577.621 2167.694 1573.792 Q 2168.168 1569.962 2169.277 1561.024 "></path>
    <path id="STROKE_e73d71f1-15d6-42ce-80dc-44a16b442b75" opacity="1.000" fill="none" stroke="#fac141" stroke-width="23.517" stroke-opacity="1.000" stroke-linecap="round" stroke-linejoin="round" d="M 2302.138 1321.076 Q 2300.129 1320.707 2292.394 1318.000 Q 2284.659 1315.294 2274.146 1312.498 Q 2263.633 1309.701 2254.804 1307.832 Q 2245.975 1305.963 2232.674 1304.355 Q 2219.373 1302.748 2206.037 1302.603 Q 2192.701 1302.459 2176.904 1304.272 Q 2161.108 1306.085 2151.252 1308.075 Q 2141.396 1310.064 2116.323 1318.562 Q 2091.251 1327.059 2078.085 1333.057 Q 2064.918 1339.056 2045.372 1349.330 Q 2025.826 1359.604 2001.994 1374.870 Q 1978.162 1390.137 1962.744 1401.964 Q 1947.326 1413.790 1937.195 1422.839 Q 1927.064 1431.888 1912.339 1447.306 Q 1897.613 1462.723 1885.192 1478.450 Q 1872.771 1494.177 1864.427 1507.062 Q 1856.084 1519.947 1848.199 1534.729 Q 1840.313 1549.511 1835.318 1560.888 Q 1830.323 1572.265 1825.841 1585.655 Q 1821.358 1599.044 1819.168 1606.873 Q 1816.979 1614.701 1814.074 1627.514 Q 1811.168 1640.327 1809.016 1652.438 Q 1806.863 1664.549 1805.992 1670.739 Q 1805.122 1676.929 1803.278 1693.763 Q 1801.434 1710.598 1800.360 1727.005 Q 1799.286 1743.411 1799.923 1769.142 Q 1800.559 1794.873 1802.348 1810.803 Q 1804.137 1826.734 1807.153 1842.108 Q 1810.169 1857.482 1813.974 1871.854 Q 1817.779 1886.226 1820.450 1894.445 Q 1823.120 1902.663 1827.336 1913.265 Q 1831.551 1923.867 1845.684 1952.518 Q 1859.817 1981.170 1869.001 1996.756 Q 1878.185 2012.343 1882.016 2018.198 Q 1885.847 2024.053 1897.041 2040.125 Q 1908.235 2056.196 1927.091 2080.307 Q 1945.947 2104.418 1951.402 2110.929 Q 1956.857 2117.440 1959.142 2120.152 Q 1961.427 2122.863 1965.977 2128.072 Q 1970.527 2133.281 1976.303 2139.538 Q 1982.079 2145.794 1984.142 2147.864 Q 1986.205 2149.934 1997.315 2161.488 "></path>
    <path id="STROKE_4922c920-ef33-4b0b-af2a-dc869ae3e1eb" opacity="1.000" fill="none" stroke="#fac141" stroke-width="26.267" stroke-opacity="1.000" stroke-linecap="round" stroke-linejoin="round" d="M 1986.621 2190.431 Q 1985.025 2192.048 1982.564 2194.406 Q 1980.104 2196.765 1978.887 2198.041 Q 1977.670 2199.317 1974.046 2203.355 Q 1970.423 2207.394 1963.428 2215.455 Q 1956.433 2223.516 1948.321 2233.033 Q 1940.208 2242.549 1920.950 2264.542 Q 1901.693 2286.535 1888.479 2301.781 Q 1875.265 2317.027 1864.062 2330.195 Q 1852.858 2343.362 1841.791 2356.163 Q 1830.724 2368.964 1812.053 2390.186 Q 1793.382 2411.408 1775.130 2432.013 Q 1756.879 2452.618 1730.324 2481.398 Q 1703.770 2510.179 1685.098 2530.448 Q 1666.426 2550.718 1657.440 2560.895 Q 1648.453 2571.072 1642.370 2578.210 Q 1636.287 2585.349 1623.650 2601.704 Q 1611.013 2618.058 1599.821 2635.204 Q 1588.629 2652.349 1580.468 2667.977 Q 1572.307 2683.605 1564.488 2703.871 Q 1556.670 2724.137 1553.193 2735.752 Q 1549.716 2747.367 1546.787 2759.023 "></path>
    <path id="STROKE_40891d36-5281-4c32-abbf-f005f3d40ab6" opacity="1.000" fill="none" stroke="#fac141" stroke-width="25.547" stroke-opacity="1.000" stroke-linecap="round" stroke-linejoin="round" d="M 2269.601 1316.492 Q 2276.180 1315.037 2280.882 1314.148 Q 2285.584 1313.260 2287.504 1312.987 Q 2289.424 1312.715 2290.445 1312.636 Q 2291.465 1312.557 2302.833 1311.147 Q 2314.201 1309.736 2323.347 1308.591 Q 2332.494 1307.445 2357.720 1305.737 Q 2382.946 1304.028 2396.577 1304.023 Q 2410.208 1304.018 2418.106 1304.282 Q 2426.003 1304.546 2438.258 1305.497 Q 2450.512 1306.447 2458.635 1307.383 Q 2466.759 1308.318 2483.987 1311.589 Q 2501.215 1314.860 2513.021 1317.858 Q 2524.827 1320.855 2541.177 1325.782 Q 2557.527 1330.710 2567.232 1334.216 Q 2576.938 1337.723 2585.588 1341.367 Q 2594.237 1345.010 2610.313 1352.991 Q 2626.390 1360.973 2640.615 1369.056 Q 2654.841 1377.139 2661.740 1381.385 Q 2668.640 1385.632 2677.846 1392.008 Q 2687.052 1398.383 2700.405 1409.627 Q 2713.759 1420.872 2729.666 1436.984 Q 2745.573 1453.097 2752.991 1462.042 Q 2760.408 1470.987 2766.229 1479.076 Q 2772.049 1487.165 2785.687 1512.319 Q 2799.324 1537.473 2805.192 1552.069 Q 2811.059 1566.664 2814.306 1576.916 Q 2817.553 1587.167 2822.337 1608.985 Q 2827.122 1630.804 2829.599 1648.408 Q 2832.076 1666.011 2833.208 1678.859 Q 2834.340 1691.707 2834.881 1704.251 Q 2835.422 1716.796 2834.226 1747.605 Q 2833.031 1778.415 2829.664 1807.450 Q 2826.297 1836.485 2820.460 1865.288 Q 2814.623 1894.090 2807.702 1917.901 Q 2800.781 1941.711 2795.402 1955.894 Q 2790.023 1970.077 2784.868 1981.073 Q 2779.714 1992.070 2765.660 2015.880 Q 2751.606 2039.690 2741.459 2053.597 Q 2731.313 2067.504 2711.764 2089.137 Q 2692.215 2110.770 2678.083 2124.023 Q 2663.951 2137.277 2654.822 2144.967 Q 2645.693 2152.657 2640.513 2156.733 Q 2635.333 2160.810 2628.007 2166.067 Q 2620.681 2171.324 2615.511 2174.802 Q 2610.341 2178.280 2591.343 2192.043 "></path>
    <path id="STROKE_bf11bf17-8b7b-4920-be7f-d3607b4b03f4" opacity="1.000" fill="none" stroke="#fac141" stroke-width="18.767" stroke-opacity="1.000" stroke-linecap="round" stroke-linejoin="round" d="M 2595.869 2213.220 Q 2597.218 2216.668 2600.031 2223.069 Q 2602.844 2229.470 2615.586 2255.568 Q 2628.327 2281.667 2635.540 2296.240 Q 2642.753 2310.814 2647.070 2319.746 Q 2651.387 2328.678 2654.264 2334.768 Q 2657.142 2340.858 2664.993 2357.613 Q 2672.844 2374.369 2686.713 2404.858 Q 2700.583 2435.348 2711.713 2462.021 Q 2722.844 2488.695 2728.727 2503.706 Q 2734.611 2518.716 2737.371 2525.859 Q 2740.132 2533.001 2744.067 2543.192 Q 2748.003 2553.383 2751.869 2563.401 Q 2755.736 2573.419 2762.736 2591.637 Q 2769.736 2609.854 2774.850 2623.705 Q 2779.964 2637.555 2784.712 2650.868 Q 2789.460 2664.181 2792.443 2672.523 Q 2795.425 2680.866 2800.509 2695.625 Q 2805.592 2710.385 2809.753 2722.801 Q 2813.915 2735.218 2816.209 2741.941 Q 2818.504 2748.666 2821.836 2758.034 Q 2825.168 2767.402 2827.424 2773.630 Q 2829.680 2779.857 2833.413 2791.616 "></path>
    <path id="STROKE_50921a66-221f-402f-a46b-f37b503322d3" opacity="1.000" fill="none" stroke="#fac141" stroke-width="22.419" stroke-opacity="1.000" stroke-linecap="round" stroke-linejoin="round" d="M 2212.960 1853.850 Q 2212.675 1855.863 2210.283 1863.864 Q 2209.813 1865.446 2204.853 1889.281 Q 2199.891 1913.117 2193.234 1948.033 Q 2186.577 1982.948 2183.363 2002.247 Q 2180.150 2021.545 2178.721 2030.827 Q 2177.292 2040.109 2175.271 2053.937 Q 2173.250 2067.764 2165.415 2127.277 Q 2157.580 2186.790 2152.581 2234.089 Q 2147.582 2281.389 2145.678 2304.091 Q 2143.773 2326.793 2142.215 2356.209 Q 2140.657 2385.626 2140.175 2402.120 Q 2139.694 2418.613 2139.543 2428.594 Q 2139.392 2438.575 2138.828 2469.752 Q 2138.264 2500.929 2137.006 2537.518 Q 2135.748 2574.108 2134.677 2593.214 Q 2133.606 2612.321 2133.082 2619.299 Q 2132.559 2626.277 2130.855 2647.700 Q 2129.152 2669.124 2128.101 2681.198 Q 2127.051 2693.272 2126.066 2709.926 Q 2125.082 2726.580 2124.809 2749.693 Q 2124.535 2772.807 2125.553 2783.442 Q 2126.571 2794.077 2129.826 2807.977 Q 2133.081 2821.877 2135.434 2827.335 Q 2137.787 2832.793 2140.276 2837.029 Q 2142.766 2841.265 2144.086 2842.950 Q 2145.407 2844.635 2147.750 2847.099 Q 2150.093 2849.562 2153.049 2852.182 Q 2156.006 2854.802 2164.359 2860.078 Q 2172.713 2865.353 2181.783 2869.189 Q 2190.854 2873.026 2196.728 2874.950 Q 2202.602 2876.873 2217.268 2880.406 Q 2231.933 2883.939 2240.459 2885.483 Q 2248.985 2887.027 2273.729 2890.106 Q 2298.472 2893.186 2311.484 2894.166 Q 2324.496 2895.145 2337.750 2896.077 Q 2351.004 2897.010 2367.898 2897.371 Q 2384.792 2897.733 2394.432 2897.598 Q 2404.072 2897.463 2417.002 2896.841 Q 2429.932 2896.219 2441.584 2895.317 Q 2453.236 2894.415 2462.664 2893.333 Q 2472.092 2892.250 2482.729 2890.715 Q 2493.366 2889.180 2495.522 2888.800 Q 2497.679 2888.420 2498.569 2888.331 Q 2499.460 2888.243 2502.278 2887.474 Q 2505.097 2886.706 2521.460 2883.199 "></path>
    <path id="STROKE_f7baf310-0b31-49bd-a264-dd21febc2d03" opacity="1.000" fill="none" stroke="#fac141" stroke-width="22.537" stroke-opacity="1.000" stroke-linecap="round" stroke-linejoin="round" d="M 2206.849 1851.813 L 2212.426 1850.611 Q 2217.092 1849.560 2231.532 1847.786 Q 2245.972 1846.013 2258.862 1844.826 Q 2271.751 1843.639 2285.970 1843.271 Q 2300.189 1842.903 2312.832 1843.490 Q 2325.474 1844.077 2333.941 1845.236 Q 2342.408 1846.395 2347.377 1847.553 Q 2352.346 1848.712 2359.719 1851.085 Q 2367.093 1853.459 2371.172 1855.258 Q 2375.251 1857.057 2383.406 1862.448 Q 2391.562 1867.840 2392.952 1869.196 Q 2394.342 1870.552 2394.740 1871.007 Q 2395.139 1871.463 2398.989 1877.536 Q 2402.839 1883.608 2405.476 1889.290 Q 2408.113 1894.971 2412.264 1910.206 Q 2416.416 1925.441 2417.037 1929.172 Q 2417.659 1932.903 2419.175 1946.472 Q 2420.690 1960.041 2422.063 2006.448 Q 2423.435 2052.855 2423.622 2082.974 Q 2423.808 2113.093 2424.080 2133.243 Q 2424.352 2153.393 2424.588 2164.361 Q 2424.825 2175.329 2426.354 2223.459 Q 2427.882 2271.589 2428.514 2282.724 Q 2429.146 2293.858 2431.695 2332.441 Q 2434.244 2371.024 2435.928 2392.289 Q 2437.612 2413.555 2438.592 2425.278 Q 2439.571 2437.002 2441.367 2459.242 Q 2443.163 2481.481 2444.125 2493.530 Q 2445.086 2505.578 2447.029 2536.443 Q 2448.971 2567.309 2449.804 2583.665 Q 2450.637 2600.021 2451.110 2610.564 Q 2451.583 2621.107 2452.033 2629.228 Q 2452.484 2637.349 2453.342 2653.676 Q 2454.200 2670.002 2454.888 2685.321 Q 2455.577 2700.639 2456.895 2718.825 Q 2458.213 2737.012 2459.948 2753.560 Q 2461.684 2770.108 2463.412 2783.252 Q 2465.139 2796.396 2467.549 2811.542 Q 2469.959 2826.689 2471.618 2836.134 Q 2473.277 2845.578 2476.895 2866.767 L 2478.513 2875.475 "></path>
    <path id="STROKE_58052948-64e1-42d3-8b0c-494748c28953" opacity="1.000" fill="none" stroke="#fac141" stroke-width="17.563" stroke-opacity="1.000" stroke-linecap="round" stroke-linejoin="round" d="M 2571.312 1631.217 Q 2566.923 1624.065 2563.356 1619.190 Q 2559.789 1614.315 2557.964 1612.029 Q 2556.140 1609.744 2551.773 1605.709 Q 2547.407 1601.675 2543.397 1599.239 Q 2539.388 1596.803 2537.202 1595.968 Q 2535.017 1595.134 2528.292 1594.605 Q 2521.567 1594.076 2514.340 1596.919 Q 2507.112 1599.762 2505.955 1600.519 Q 2504.798 1601.276 2501.919 1603.992 Q 2499.040 1606.709 2493.529 1615.552 Q 2488.017 1624.394 2485.781 1631.557 Q 2483.545 1638.720 2482.733 1644.486 Q 2481.921 1650.252 2481.862 1653.984 Q 2481.802 1657.716 2482.102 1661.168 Q 2482.401 1664.620 2483.463 1669.234 Q 2484.526 1673.848 2485.828 1677.178 Q 2487.130 1680.508 2489.638 1684.767 Q 2492.146 1689.026 2494.238 1691.172 Q 2496.330 1693.318 2498.823 1694.821 Q 2501.315 1696.324 2503.870 1696.986 Q 2506.424 1697.647 2509.235 1697.614 Q 2512.046 1697.581 2513.592 1697.233 Q 2515.137 1696.886 2517.546 1695.769 Q 2519.956 1694.653 2523.374 1692.078 Q 2526.792 1689.504 2529.907 1686.232 Q 2533.022 1682.959 2541.831 1668.210 Q 2550.639 1653.460 2555.877 1641.713 Q 2561.847 1626.223 2564.691 1618.443 "></path>
  </g>
</svg>