<?xml version="1.0" encoding="UTF-8" standalone="yes"?>
<svg xmlns="http://www.w3.org/2000/svg" xmlns:xlink="http://www.w3.org/1999/xlink" width="594.090pt" height="552.969pt" version="1.1" viewBox="-1681.511 -1923.151 594.090 552.969">
  <!--
	Exported with Concepts: Smarter Sketching
	Version: 2744 on iOS 16.3
	https://concepts.app/
	-->
  <title>31E2E38E-8398-41CD-B3A8-35262B8301A2</title>
  <desc>Drawing exported from Concepts: Smarter Sketching</desc>
  <defs></defs>
  <g id="New_Layer_4" opacity="1.000">
    <path id="STROKE_2485e01a-25d8-464d-b952-6c5d679dc7d4" opacity="1.000" fill="none" stroke="#fac141" stroke-width="24.861" stroke-opacity="1.000" stroke-linecap="round" stroke-linejoin="round" d="M -1505.109 -1853.156 Q -1504.662 -1847.250 -1504.147 -1840.865 Q -1503.633 -1834.481 -1501.635 -1818.658 Q -1499.638 -1802.834 -1498.104 -1783.388 Q -1496.570 -1763.942 -1496.605 -1755.200 Q -1496.641 -1746.457 -1497.325 -1737.474 Q -1498.010 -1728.492 -1500.397 -1713.910 Q -1502.784 -1699.329 -1505.559 -1689.238 Q -1508.335 -1679.147 -1513.254 -1667.256 Q -1518.174 -1655.365 -1521.391 -1649.453 Q -1524.609 -1643.541 -1529.269 -1636.454 Q -1533.930 -1629.367 -1539.747 -1622.468 Q -1545.563 -1615.568 -1548.285 -1612.818 Q -1551.007 -1610.067 -1554.806 -1606.330 Q -1558.605 -1602.592 -1571.221 -1593.063 Q -1583.838 -1583.534 -1587.019 -1581.481 Q -1590.200 -1579.428 -1602.250 -1572.460 Q -1614.299 -1565.492 -1619.704 -1563.000 Q -1625.109 -1560.509 -1636.252 -1556.248 Q -1647.394 -1551.988 -1665.560 -1544.915 "></path>
    <path id="STROKE_2529e908-83b8-4c9b-91c4-9edb55fe24e5" opacity="1.000" fill="none" stroke="#fac141" stroke-width="22.841" stroke-opacity="1.000" stroke-linecap="round" stroke-linejoin="round" d="M -1419.043 -1900.184 L -1417.362 -1896.647 Q -1412.204 -1887.640 -1409.649 -1882.626 Q -1407.094 -1877.613 -1402.546 -1867.907 Q -1397.997 -1858.200 -1394.291 -1849.237 Q -1390.585 -1840.274 -1388.057 -1833.357 Q -1385.528 -1826.440 -1381.696 -1811.353 Q -1377.865 -1796.265 -1375.485 -1773.054 Q -1373.104 -1749.844 -1373.561 -1736.974 Q -1374.017 -1724.104 -1374.841 -1715.948 Q -1375.665 -1707.792 -1376.898 -1700.523 Q -1378.131 -1693.254 -1379.989 -1684.777 Q -1381.847 -1676.300 -1384.196 -1667.663 Q -1386.545 -1659.026 -1388.514 -1653.310 Q -1390.483 -1647.594 -1395.725 -1632.826 Q -1400.967 -1618.059 -1404.069 -1609.314 Q -1407.172 -1600.569 -1409.452 -1594.385 Q -1411.733 -1588.201 -1417.885 -1567.601 L -1420.816 -1555.195 L -1422.350 -1541.970 Q -1422.767 -1536.031 -1422.455 -1528.286 Q -1422.143 -1520.541 -1421.213 -1514.768 Q -1420.282 -1508.996 -1417.287 -1499.750 Q -1414.292 -1490.503 -1401.282 -1470.746 Q -1388.271 -1450.989 -1383.365 -1446.222 Q -1378.459 -1441.455 -1366.252 -1432.467 Q -1354.045 -1423.479 -1341.526 -1416.881 Q -1329.008 -1410.283 -1316.520 -1405.439 Q -1304.033 -1400.596 -1291.208 -1397.434 Q -1278.384 -1394.273 -1254.203 -1391.541 Q -1230.023 -1388.810 -1227.940 -1388.671 Q -1225.858 -1388.533 -1215.821 -1388.378 Q -1205.785 -1388.223 -1195.074 -1388.731 Q -1184.364 -1389.238 -1171.701 -1390.239 Q -1159.039 -1391.241 -1148.153 -1392.471 Q -1137.268 -1393.701 -1106.455 -1397.032 "></path>
  </g>
</svg>