<?xml version="1.0" encoding="UTF-8" standalone="yes"?>
<svg xmlns="http://www.w3.org/2000/svg" xmlns:xlink="http://www.w3.org/1999/xlink" width="77.067pt" height="177.884pt" version="1.1" viewBox="-67.402 674.554 77.067 177.884">
  <!--
	Exported with Concepts: Smarter Sketching
	Version: 2744 on iOS 16.3
	https://concepts.app/
	-->
  <title>BFC21A53-F49A-455E-958D-961EE3998E51</title>
  <desc>Drawing exported from Concepts: Smarter Sketching</desc>
  <defs></defs>
  <g id="Pen" opacity="1.000">
    <path id="STROKE_adfa9f82-6438-4dde-9fa9-9db801fcb87c" opacity="1.000" fill="none" stroke="#fac141" stroke-width="19.615" stroke-opacity="1.000" stroke-linecap="round" stroke-linejoin="round" d="M -8.660 719.173 Q -9.029 718.187 -9.465 716.407 Q -9.900 714.628 -10.202 713.479 Q -10.503 712.330 -11.492 708.871 Q -12.481 705.411 -14.430 700.500 Q -16.379 695.588 -18.317 692.749 Q -20.255 689.911 -21.801 688.574 Q -23.346 687.238 -24.805 686.675 Q -26.263 686.113 -27.212 686.068 Q -28.162 686.023 -28.845 686.071 Q -29.528 686.119 -30.896 686.677 Q -32.263 687.235 -33.311 687.967 Q -34.359 688.698 -35.214 689.499 Q -36.068 690.300 -37.831 692.592 Q -39.594 694.884 -41.882 699.323 Q -44.171 703.763 -46.288 710.455 Q -48.405 717.147 -49.249 721.221 Q -50.093 725.295 -51.104 732.533 Q -52.114 739.771 -52.509 744.095 Q -52.904 748.419 -53.218 762.018 Q -53.533 775.618 -52.652 786.726 Q -51.771 797.834 -50.864 803.051 Q -49.957 808.267 -46.644 817.596 Q -43.330 826.925 -41.553 829.407 Q -39.776 831.890 -37.389 833.572 Q -35.001 835.254 -33.999 835.476 Q -32.998 835.698 -32.165 835.586 Q -31.332 835.474 -30.007 834.950 Q -28.682 834.426 -26.495 832.682 Q -24.308 830.938 -22.607 828.832 Q -20.905 826.726 -20.038 825.402 Q -19.170 824.078 -18.745 823.391 Q -18.320 822.703 -16.277 818.409 Q -14.233 814.114 -11.077 802.490 Q -7.921 790.866 -6.911 783.865 Q -5.901 776.864 -5.264 762.316 Q -4.627 747.769 -4.997 739.871 Q -5.366 731.974 -5.694 728.300 Q -6.021 724.626 -6.511 720.522 Q -7.000 716.419 -10.060 695.687 "></path>
  </g>
</svg>