<?xml version="1.0" encoding="UTF-8" standalone="yes"?>
<svg xmlns="http://www.w3.org/2000/svg" xmlns:xlink="http://www.w3.org/1999/xlink" width="447.776pt" height="175.604pt" version="1.1" viewBox="-7.579 1525.626 447.776 175.604">
  <!--
	Exported with Concepts: Smarter Sketching
	Version: 2744 on iOS 16.3
	https://concepts.app/
	-->
  <title>BFC21A53-F49A-455E-958D-961EE3998E51</title>
  <desc>Drawing exported from Concepts: Smarter Sketching</desc>
  <defs></defs>
  <g id="Pen" opacity="1.000">
    <path id="STROKE_3195aa00-34c6-49c5-b88b-c869ebdcf1a5" opacity="1.000" fill="none" stroke="#fac141" stroke-width="17.069" stroke-opacity="1.000" stroke-linecap="round" stroke-linejoin="round" d="M 5.879 1587.733 Q 8.355 1589.676 16.185 1596.494 Q 24.015 1603.312 33.464 1611.256 Q 42.914 1619.199 48.420 1623.517 Q 53.925 1627.835 65.609 1636.028 Q 77.293 1644.221 80.509 1646.317 Q 83.726 1648.413 92.016 1653.120 Q 100.306 1657.827 115.037 1664.302 Q 129.768 1670.777 149.844 1676.469 Q 169.920 1682.161 179.320 1683.668 Q 188.721 1685.175 196.686 1685.865 Q 204.651 1686.556 211.341 1686.786 Q 218.030 1687.016 231.879 1686.307 Q 245.728 1685.598 255.581 1684.236 Q 265.434 1682.873 269.698 1681.955 Q 273.963 1681.038 281.081 1678.951 Q 288.200 1676.865 300.564 1671.684 Q 312.928 1666.503 318.791 1663.158 Q 324.654 1659.814 328.206 1657.428 Q 331.758 1655.043 334.045 1653.352 Q 336.332 1651.662 344.295 1644.905 Q 352.258 1638.148 356.247 1634.278 Q 360.236 1630.407 363.038 1627.404 Q 365.841 1624.400 369.551 1620.201 Q 373.261 1616.002 379.865 1607.684 Q 386.470 1599.365 392.544 1590.370 Q 398.618 1581.375 404.618 1571.575 Q 410.618 1561.775 419.828 1545.784 "></path>
  </g>
</svg>