<?xml version="1.0" encoding="UTF-8" standalone="yes"?>
<svg xmlns="http://www.w3.org/2000/svg" xmlns:xlink="http://www.w3.org/1999/xlink" width="70.445pt" height="156.047pt" version="1.1" viewBox="207.070 675.246 70.445 156.047">
  <!--
	Exported with Concepts: Smarter Sketching
	Version: 2744 on iOS 16.3
	https://concepts.app/
	-->
  <title>BFC21A53-F49A-455E-958D-961EE3998E51</title>
  <desc>Drawing exported from Concepts: Smarter Sketching</desc>
  <defs></defs>
  <g id="Pen" opacity="1.000">
    <path id="STROKE_ae048a56-0b21-42c2-acdf-61b3820b4c9b" opacity="1.000" fill="none" stroke="#fac141" stroke-width="18.446" stroke-opacity="1.000" stroke-linecap="round" stroke-linejoin="round" d="M 258.845 725.922 L 258.765 725.031 Q 258.557 723.359 258.458 722.292 Q 258.360 721.225 257.263 714.995 Q 256.166 708.764 254.955 704.458 Q 253.744 700.151 252.481 697.382 Q 251.218 694.612 250.254 693.142 Q 249.291 691.671 247.851 690.230 Q 246.411 688.788 245.097 688.031 Q 243.784 687.275 242.706 687.038 Q 241.629 686.802 240.869 686.859 Q 240.109 686.917 239.538 687.047 Q 238.968 687.178 237.333 688.029 Q 235.699 688.880 234.325 690.167 Q 232.951 691.453 231.860 692.874 Q 230.769 694.294 228.813 698.021 Q 226.857 701.748 225.093 707.688 Q 223.329 713.628 222.694 717.170 Q 222.059 720.711 221.479 725.539 Q 220.898 730.366 220.575 735.746 Q 220.251 741.126 220.206 748.677 Q 220.161 756.227 221.568 771.967 Q 222.974 787.706 223.602 790.906 Q 224.231 794.106 225.757 799.284 Q 227.282 804.461 228.971 807.682 Q 230.660 810.903 231.881 812.287 Q 233.102 813.671 234.056 814.344 Q 235.010 815.016 235.300 815.140 Q 235.590 815.264 237.094 815.123 Q 238.599 814.981 239.109 814.793 Q 239.620 814.604 241.494 813.280 Q 243.368 811.957 244.903 810.140 Q 246.439 808.323 248.697 804.269 Q 250.955 800.214 254.374 789.478 Q 257.793 778.742 259.309 770.444 Q 260.824 762.145 261.914 752.604 Q 263.003 743.063 263.496 735.342 Q 263.989 727.621 264.141 722.734 Q 264.292 717.847 264.310 715.021 Q 264.327 712.194 264.286 702.075 "></path>
  </g>
</svg>