<?xml version="1.0" encoding="UTF-8" standalone="no"?>
<!DOCTYPE svg PUBLIC "-//W3C//DTD SVG 20010904//EN"
              "http://www.w3.org/TR/2001/REC-SVG-20010904/DTD/svg10.dtd">

<svg xmlns="http://www.w3.org/2000/svg"
     width="8.88889in" height="19.7in"
     viewBox="0 0 800 1773">
  <path id="Selection"
        fill="none" stroke="black" stroke-width="1"
        d="M 611.00,207.00
           C 635.70,198.77 656.75,197.11 682.00,204.72
             724.28,217.47 754.93,258.90 755.00,303.00
             755.00,303.00 755.00,492.00 755.00,492.00
             755.00,492.00 754.00,507.00 754.00,507.00
             754.00,507.00 753.00,558.00 753.00,558.00
             753.00,558.00 752.00,573.00 752.00,573.00
             752.00,573.00 751.00,602.00 751.00,602.00
             751.00,602.00 750.00,617.00 750.00,617.00
             750.00,617.00 749.00,634.00 749.00,634.00
             749.00,634.00 748.00,656.00 748.00,656.00
             748.00,656.00 747.04,667.00 747.04,667.00
             747.04,667.00 744.09,713.00 744.09,713.00
             744.09,713.00 734.83,823.00 734.83,823.00
             734.83,823.00 728.17,883.00 728.17,883.00
             719.87,965.95 703.51,1074.78 685.58,1156.00
             674.19,1207.54 659.68,1258.62 644.02,1309.00
             628.64,1358.51 610.64,1415.66 590.28,1463.00
             590.28,1463.00 576.74,1494.00 576.74,1494.00
             559.60,1529.41 529.97,1579.10 503.83,1608.00
             490.77,1622.44 476.36,1635.50 461.00,1647.42
             444.51,1660.22 419.57,1677.18 400.00,1684.14
             377.76,1692.04 345.61,1695.27 322.00,1695.00
             275.76,1694.46 234.07,1662.19 204.85,1629.00
             183.77,1605.06 167.96,1578.42 153.75,1550.00
             124.20,1490.89 106.53,1426.91 90.63,1363.00
             81.66,1326.97 77.52,1289.86 73.83,1253.00
             73.83,1253.00 66.17,1179.00 66.17,1179.00
             66.17,1179.00 58.17,1091.00 58.17,1091.00
             58.17,1091.00 56.83,1072.00 56.83,1072.00
             56.83,1072.00 49.00,974.00 49.00,974.00
             49.00,974.00 49.00,965.00 49.00,965.00
             49.00,965.00 46.00,912.00 46.00,912.00
             46.00,912.00 45.00,898.00 45.00,898.00
             45.00,898.00 45.00,883.00 45.00,883.00
             45.00,883.00 44.00,867.00 44.00,867.00
             44.00,867.00 44.00,795.00 44.00,795.00
             44.00,795.00 45.00,780.00 45.00,780.00
             45.00,780.00 45.00,754.00 45.00,754.00
             45.00,754.00 46.00,737.00 46.00,737.00
             46.00,737.00 47.00,704.00 47.00,704.00
             47.00,704.00 48.00,691.00 48.00,691.00
             48.00,691.00 49.91,660.00 49.91,660.00
             49.91,660.00 57.84,571.00 57.84,571.00
             67.06,484.78 77.22,429.39 101.58,346.00
             112.44,308.82 125.14,270.22 141.31,235.00
             152.79,209.98 175.73,166.96 191.43,145.00
             220.11,104.87 254.89,72.40 299.00,50.04
             313.76,42.55 328.84,35.82 345.00,31.90
             360.60,28.11 377.00,26.82 393.00,27.00
             393.00,27.00 403.00,27.92 403.00,27.92
             433.53,30.36 462.94,40.85 489.00,56.81
             510.11,69.74 534.20,90.25 550.27,109.00
             577.68,140.97 594.39,168.39 611.00,207.00 Z
           M 347.00,1466.00
           C 352.24,1461.91 355.36,1456.47 359.00,1451.00
             359.00,1451.00 377.28,1421.00 377.28,1421.00
             400.64,1379.89 418.22,1322.35 433.33,1277.00
             451.05,1223.85 468.50,1162.68 480.58,1108.00
             497.99,1029.16 513.09,920.82 521.17,840.00
             521.17,840.00 528.83,767.00 528.83,767.00
             528.83,767.00 532.17,725.00 532.17,725.00
             532.17,725.00 535.04,686.00 535.04,686.00
             535.27,680.76 536.44,676.74 535.95,671.04
             535.43,664.95 527.40,661.79 523.00,658.33
             515.40,652.35 505.93,642.08 500.52,634.00
             483.70,608.91 483.72,587.52 480.28,559.00
             480.28,559.00 478.72,543.00 478.72,543.00
             478.72,543.00 464.42,459.00 464.42,459.00
             455.75,410.93 445.14,363.06 428.69,317.00
             422.87,300.69 411.66,275.29 402.30,261.00
             399.81,257.18 391.10,245.36 387.00,244.34
             383.05,243.35 374.74,253.17 372.04,256.00
             359.71,268.91 350.80,288.38 342.14,304.00
             326.37,332.44 313.74,370.62 304.58,402.00
             290.20,451.21 282.01,481.72 274.87,533.00
             268.37,579.65 263.12,626.07 259.91,673.00
             259.91,673.00 257.00,727.00 257.00,727.00
             257.00,727.00 256.00,740.00 256.00,740.00
             256.00,740.00 256.00,756.00 256.00,756.00
             256.00,756.00 255.00,772.00 255.00,772.00
             255.00,772.00 255.00,815.00 255.00,815.00
             255.00,815.00 254.00,830.00 254.00,830.00
             254.00,830.00 254.00,847.00 254.00,847.00
             254.00,847.00 255.00,864.00 255.00,864.00
             255.00,864.00 255.00,882.00 255.00,882.00
             255.00,882.00 256.00,898.00 256.00,898.00
             256.00,898.00 257.00,923.00 257.00,923.00
             257.00,923.00 258.00,938.00 258.00,938.00
             258.00,938.00 259.91,967.00 259.91,967.00
             259.91,967.00 268.83,1081.00 268.83,1081.00
             268.83,1081.00 281.83,1219.00 281.83,1219.00
             281.83,1219.00 286.72,1263.00 286.72,1263.00
             286.72,1263.00 290.80,1293.00 290.80,1293.00
             297.61,1328.84 316.81,1396.19 330.20,1430.00
             330.20,1430.00 339.81,1452.00 339.81,1452.00
             339.81,1452.00 347.00,1466.00 347.00,1466.00 Z" />
</svg>
