<?xml version="1.0" encoding="UTF-8" standalone="yes"?>
<svg xmlns="http://www.w3.org/2000/svg" xmlns:xlink="http://www.w3.org/1999/xlink" width="5401.745pt" height="3007.266pt" version="1.1" viewBox="-3663.204 -398.216 5401.745 3007.266">
  <!--
	Exported with Concepts: Smarter Sketching
	Version: 2744 on iOS 16.3
	https://concepts.app/
	-->
  <title>31E2E38E-8398-41CD-B3A8-35262B8301A2</title>
  <desc>Drawing exported from Concepts: Smarter Sketching</desc>
  <defs></defs>
  <g id="New_Layer_4" opacity="1.000">
    <path id="STROKE_b12d6843-d5d3-4010-8307-048a74c11a4b" opacity="1.000" fill="none" stroke="#fac141" stroke-width="17.528" stroke-opacity="1.000" stroke-linecap="round" stroke-linejoin="round" d="M -3601.679 -339.873 L -3602.101 -333.351 L -3602.981 -325.051 Q -3605.503 -257.367 -3604.414 -215.408 Q -3603.325 -173.448 -3601.287 -149.005 Q -3599.250 -124.561 -3596.598 -105.503 Q -3593.946 -86.446 -3589.732 -64.257 Q -3585.519 -42.068 -3580.649 -22.218 Q -3575.780 -2.368 -3562.995 36.685 Q -3550.210 75.739 -3540.532 98.405 Q -3530.854 121.071 -3521.574 139.688 Q -3512.295 158.305 -3499.809 180.274 Q -3487.324 202.243 -3475.054 220.311 Q -3462.784 238.379 -3453.280 250.590 Q -3443.776 262.802 -3427.500 281.596 Q -3411.224 300.391 -3405.829 305.947 Q -3400.433 311.503 -3383.727 326.958 Q -3367.021 342.413 -3356.213 351.293 Q -3345.406 360.173 -3330.967 370.786 Q -3316.529 381.399 -3303.647 389.637 Q -3290.765 397.874 -3269.761 409.311 Q -3248.756 420.747 -3217.450 433.809 Q -3186.144 446.871 -3155.407 456.524 Q -3124.671 466.176 -3092.350 474.471 Q -3060.030 482.765 -3018.964 491.672 Q -2977.899 500.578 -2960.377 504.206 Q -2942.855 507.835 -2889.878 519.554 Q -2836.901 531.273 -2794.976 542.191 Q -2753.052 553.109 -2727.424 561.216 Q -2701.797 569.323 -2654.686 588.367 Q -2607.575 607.412 -2569.380 628.362 Q -2531.186 649.311 -2514.041 661.130 Q -2496.896 672.948 -2481.287 685.496 Q -2465.677 698.044 -2431.819 733.687 Q -2397.962 769.330 -2379.189 798.734 Q -2360.416 828.139 -2352.525 844.890 Q -2344.634 861.640 -2335.510 888.941 Q -2326.385 916.242 -2322.368 935.623 Q -2318.350 955.004 -2315.621 987.919 Q -2312.892 1020.834 -2315.566 1059.002 Q -2318.241 1097.170 -2322.021 1120.201 Q -2325.802 1143.231 -2329.111 1158.971 Q -2332.421 1174.711 -2341.617 1210.570 Q -2350.814 1246.430 -2360.605 1278.841 Q -2370.396 1311.251 -2386.256 1359.580 Q -2402.116 1407.908 -2432.093 1491.408 Q -2462.070 1574.908 -2477.675 1617.303 Q -2493.281 1659.698 -2499.801 1677.326 Q -2506.322 1694.954 -2529.185 1760.622 Q -2552.049 1826.290 -2561.660 1857.487 Q -2571.270 1888.683 -2586.258 1952.814 Q -2601.246 2016.945 -2605.981 2067.297 Q -2610.716 2117.649 -2608.351 2158.930 Q -2605.985 2200.210 -2599.962 2228.355 Q -2593.940 2256.500 -2584.834 2281.023 Q -2575.729 2305.546 -2560.363 2332.898 Q -2544.997 2360.250 -2514.686 2394.175 Q -2484.374 2428.099 -2464.695 2443.618 Q -2445.016 2459.137 -2422.819 2472.481 Q -2400.621 2485.825 -2384.519 2493.354 Q -2368.417 2500.882 -2355.544 2505.820 Q -2342.672 2510.759 -2302.341 2521.703 Q -2262.011 2532.647 -2223.308 2538.079 Q -2184.604 2543.510 -2164.480 2544.880 Q -2144.355 2546.249 -2096.237 2546.152 Q -2048.118 2546.056 -1956.543 2536.650 Q -1864.968 2527.245 -1790.707 2513.340 Q -1716.445 2499.435 -1655.797 2484.919 Q -1595.148 2470.403 -1517.429 2447.788 Q -1439.710 2425.173 -1380.412 2405.287 Q -1321.114 2385.401 -1291.525 2374.694 Q -1261.936 2363.987 -1184.324 2334.232 Q -1106.713 2304.477 -1024.496 2271.078 Q -942.278 2237.679 -831.018 2191.341 Q -719.758 2145.004 -687.736 2131.286 Q -655.714 2117.568 -575.347 2081.829 Q -494.979 2046.091 -479.409 2039.037 Q -463.839 2031.984 -354.112 1979.965 Q -244.384 1927.947 -186.375 1899.749 Q -128.365 1871.552 -102.060 1858.781 Q -75.755 1846.010 -54.272 1835.566 Q -32.790 1825.122 29.921 1794.992 Q 92.631 1764.862 147.238 1739.104 Q 201.845 1713.345 243.450 1693.860 Q 285.055 1674.375 305.513 1664.833 Q 325.970 1655.290 396.066 1621.444 Q 466.162 1587.598 502.039 1569.595 Q 537.916 1551.592 603.722 1517.107 Q 669.528 1482.622 703.515 1464.243 Q 737.501 1445.864 754.454 1436.482 Q 771.407 1427.101 801.503 1410.420 Q 831.600 1393.739 905.878 1351.484 Q 980.156 1309.230 1032.242 1279.376 Q 1084.328 1249.522 1103.246 1238.997 Q 1122.164 1228.471 1253.137 1153.248 Q 1384.111 1078.025 1473.025 1027.086 Q 1561.939 976.147 1587.812 961.343 Q 1613.686 946.538 1620.979 942.251 Q 1628.271 937.964 1635.819 933.834 Q 1643.366 929.705 1671.359 915.015 "></path>
  </g>
</svg>