<?xml version="1.0" encoding="UTF-8" standalone="yes"?>
<svg xmlns="http://www.w3.org/2000/svg" xmlns:xlink="http://www.w3.org/1999/xlink" width="1917.320pt" height="822.100pt" version="1.1" viewBox="-3055.266 -983.607 1917.320 822.100">
  <!--
	Exported with Concepts: Smarter Sketching
	Version: 2744 on iOS 16.3
	https://concepts.app/
	-->
  <title>31E2E38E-8398-41CD-B3A8-35262B8301A2</title>
  <desc>Drawing exported from Concepts: Smarter Sketching</desc>
  <defs></defs>
  <g id="New_Layer_3" opacity="1.000">
    <path id="STROKE_555aa7de-f31e-43ca-8d95-84a939b3d465" opacity="1.000" fill="none" stroke="#fac141" stroke-width="48.494" stroke-opacity="1.000" stroke-linecap="round" stroke-linejoin="round" d="M -1486.998 -251.901 Q -1487.008 -254.678 -1487.226 -258.413 Q -1487.444 -262.149 -1487.522 -264.102 Q -1487.600 -266.054 -1487.287 -274.370 Q -1486.974 -282.686 -1485.817 -301.468 Q -1484.660 -320.250 -1482.827 -336.842 Q -1480.994 -353.435 -1474.578 -387.655 Q -1468.161 -421.874 -1463.191 -441.130 Q -1458.222 -460.385 -1455.198 -470.525 Q -1452.175 -480.666 -1444.131 -503.261 Q -1436.087 -525.857 -1431.156 -537.489 Q -1426.225 -549.122 -1420.347 -561.160 Q -1414.469 -573.198 -1402.077 -593.990 Q -1389.685 -614.782 -1378.939 -629.150 Q -1368.193 -643.518 -1354.893 -657.385 Q -1341.594 -671.253 -1326.265 -682.435 Q -1310.936 -693.617 -1296.247 -699.450 Q -1281.558 -705.282 -1271.386 -706.080 Q -1261.215 -706.878 -1255.855 -705.924 Q -1250.494 -704.971 -1245.016 -702.671 Q -1239.539 -700.372 -1234.507 -696.365 Q -1229.475 -692.357 -1219.828 -677.006 Q -1210.180 -661.656 -1205.135 -644.040 Q -1200.089 -626.425 -1198.146 -613.365 Q -1196.202 -600.306 -1195.386 -590.828 Q -1194.570 -581.351 -1193.998 -565.477 Q -1193.426 -549.603 -1193.403 -537.497 Q -1193.380 -525.391 -1193.896 -503.435 Q -1194.413 -481.479 -1195.952 -443.961 Q -1197.491 -406.444 -1198.432 -386.938 Q -1199.372 -367.432 -1200.516 -343.541 Q -1201.660 -319.650 -1202.676 -295.859 Q -1203.691 -272.068 -1204.338 -256.741 Q -1204.985 -241.414 -1205.283 -236.070 Q -1205.581 -230.726 -1206.050 -213.949 "></path>
    <path id="STROKE_cebc9fd1-733d-473e-a80c-5edf30ff4803" opacity="1.000" fill="none" stroke="#fac141" stroke-width="49.040" stroke-opacity="1.000" stroke-linecap="round" stroke-linejoin="round" d="M -1373.156 -229.800 Q -1370.859 -233.453 -1368.447 -236.106 "></path>
  </g>
  <g id="New_Layer_4" opacity="1.000">
    <path id="STROKE_63a7640b-cc2f-4864-a870-79c94b72802c" opacity="1.000" fill="none" stroke="#fac141" stroke-width="36.761" stroke-opacity="1.000" stroke-linecap="round" stroke-linejoin="round" d="M -3022.883 -658.474 Q -3021.540 -661.517 -3021.149 -662.673 Q -3020.758 -663.829 -3019.825 -666.256 Q -3018.892 -668.682 -3017.750 -671.409 Q -3016.609 -674.136 -3014.494 -678.831 Q -3012.379 -683.526 -3005.251 -697.787 Q -2998.124 -712.048 -2991.400 -723.000 Q -2984.677 -733.952 -2980.524 -739.755 Q -2976.372 -745.559 -2972.365 -750.617 Q -2968.359 -755.675 -2955.321 -769.539 Q -2942.283 -783.403 -2931.923 -792.124 Q -2921.563 -800.846 -2916.225 -804.698 Q -2910.886 -808.551 -2906.212 -811.647 Q -2901.539 -814.743 -2886.568 -822.773 Q -2871.598 -830.803 -2858.426 -835.657 Q -2845.254 -840.512 -2829.927 -843.657 Q -2814.600 -846.802 -2806.489 -847.353 Q -2798.377 -847.904 -2791.557 -847.800 Q -2784.737 -847.695 -2775.469 -846.569 Q -2766.200 -845.442 -2760.989 -844.272 Q -2755.778 -843.102 -2744.909 -839.486 Q -2734.040 -835.870 -2722.444 -829.926 Q -2710.849 -823.981 -2697.354 -813.993 Q -2683.859 -804.006 -2674.744 -795.518 Q -2665.630 -787.031 -2658.998 -779.973 Q -2652.366 -772.916 -2648.719 -768.814 Q -2645.072 -764.713 -2626.484 -741.545 Q -2607.896 -718.377 -2602.224 -711.107 Q -2596.552 -703.836 -2584.382 -688.185 Q -2572.212 -672.535 -2565.196 -663.730 Q -2558.180 -654.924 -2551.240 -646.782 Q -2544.299 -638.639 -2539.246 -632.996 Q -2534.193 -627.354 -2521.556 -615.035 Q -2508.920 -602.715 -2501.066 -596.293 Q -2493.212 -589.871 -2484.398 -583.832 Q -2475.584 -577.792 -2461.599 -570.854 Q -2447.615 -563.916 -2437.487 -560.779 Q -2427.359 -557.642 -2417.341 -556.203 Q -2407.323 -554.763 -2399.760 -554.701 Q -2392.197 -554.640 -2379.234 -556.857 Q -2366.271 -559.075 -2357.896 -561.985 Q -2349.520 -564.896 -2338.270 -570.780 Q -2327.020 -576.665 -2317.351 -583.823 Q -2307.683 -590.981 -2299.348 -598.975 Q -2291.013 -606.969 -2275.202 -627.478 Q -2259.390 -647.987 -2249.180 -666.076 Q -2238.971 -684.165 -2234.694 -693.215 Q -2230.417 -702.265 -2226.542 -711.389 Q -2222.666 -720.514 -2219.396 -728.991 Q -2216.125 -737.468 -2213.497 -744.863 Q -2210.868 -752.259 -2206.664 -764.635 Q -2202.459 -777.012 -2195.071 -797.185 Q -2187.683 -817.358 -2182.948 -828.808 Q -2178.212 -840.258 -2171.795 -853.313 Q -2165.377 -866.367 -2161.759 -872.671 Q -2158.140 -878.975 -2151.899 -888.431 Q -2145.658 -897.888 -2135.010 -911.604 Q -2124.363 -925.321 -2118.059 -932.676 Q -2111.754 -940.031 -2108.575 -943.605 Q -2105.397 -947.179 -2098.232 -954.977 "></path>
  </g>
</svg>