<?xml version="1.0" encoding="UTF-8" standalone="yes"?>
<svg xmlns="http://www.w3.org/2000/svg" xmlns:xlink="http://www.w3.org/1999/xlink" width="98.662pt" height="121.680pt" version="1.1" viewBox="1474.409 1240.186 98.662 121.680">
  <!--
	Exported with Concepts: Smarter Sketching
	Version: 2744 on iOS 16.3
	https://concepts.app/
	-->
  <title>BFC21A53-F49A-455E-958D-961EE3998E51</title>
  <desc>Drawing exported from Concepts: Smarter Sketching</desc>
  <defs></defs>
  <g id="Pen" opacity="1.000">
    <path id="STROKE_772c4a83-5e8d-4234-b5f9-68d7c2d39d9d" opacity="1.000" fill="none" stroke="#fac141" stroke-width="15.336" stroke-opacity="1.000" stroke-linecap="round" stroke-linejoin="round" d="M 1540.645 1250.184 Q 1539.429 1252.199 1536.425 1260.432 Q 1533.420 1268.664 1531.967 1270.803 Q 1530.515 1272.942 1530.092 1273.862 Q 1529.668 1274.783 1528.130 1276.316 Q 1526.593 1277.848 1525.841 1278.638 Q 1525.090 1279.427 1524.703 1279.805 Q 1524.316 1280.183 1521.412 1281.888 Q 1518.509 1283.593 1514.341 1285.156 Q 1510.174 1286.720 1506.294 1287.583 Q 1502.415 1288.447 1499.998 1288.906 Q 1497.581 1289.365 1487.378 1290.089 "></path>
    <path id="STROKE_96ccf739-8fee-40ff-8957-3d317cb44b0c" opacity="1.000" fill="none" stroke="#fac141" stroke-width="13.815" stroke-opacity="1.000" stroke-linecap="round" stroke-linejoin="round" d="M 1542.096 1258.709 Q 1542.626 1261.567 1543.056 1266.232 Q 1543.485 1270.896 1544.260 1275.582 Q 1545.034 1280.267 1545.041 1281.725 Q 1545.047 1283.183 1546.347 1287.796 Q 1547.646 1292.408 1548.178 1293.781 Q 1548.710 1295.153 1550.775 1299.915 Q 1552.840 1304.677 1554.724 1308.854 Q 1556.608 1313.031 1560.597 1323.963 "></path>
    <path id="STROKE_0507506a-3aaa-4f6a-9db5-0771818a33d3" opacity="1.000" fill="none" stroke="#fac141" stroke-width="13.093" stroke-opacity="1.000" stroke-linecap="round" stroke-linejoin="round" d="M 1487.136 1291.585 Q 1489.080 1296.188 1489.637 1297.127 Q 1490.193 1298.066 1491.066 1302.768 Q 1491.940 1307.469 1492.656 1312.288 Q 1493.372 1317.106 1493.609 1318.357 Q 1493.845 1319.608 1495.272 1329.018 Q 1494.913 1330.318 1496.697 1339.066 L 1498.563 1344.641 "></path>
    <path id="STROKE_870fa163-b0c1-4319-baa3-4b5121f27faf" opacity="1.000" fill="none" stroke="#fac141" stroke-width="13.019" stroke-opacity="1.000" stroke-linecap="round" stroke-linejoin="round" d="M 1555.216 1329.087 Q 1548.853 1329.998 1544.517 1331.654 Q 1540.181 1333.309 1538.458 1333.531 Q 1536.735 1333.753 1531.415 1336.062 Q 1526.094 1338.370 1521.379 1340.012 Q 1516.663 1341.654 1515.652 1342.296 Q 1514.641 1342.938 1509.459 1344.894 Q 1504.277 1346.850 1499.289 1348.541 "></path>
  </g>
</svg>