<?xml version="1.0" encoding="UTF-8" standalone="yes"?>
<svg xmlns="http://www.w3.org/2000/svg" xmlns:xlink="http://www.w3.org/1999/xlink" width="572.633pt" height="645.225pt" version="1.1" viewBox="-661.520 -1407.576 572.633 645.225">
  <!--
	Exported with Concepts: Smarter Sketching
	Version: 2744 on iOS 16.3
	https://concepts.app/
	-->
  <title>31E2E38E-8398-41CD-B3A8-35262B8301A2</title>
  <desc>Drawing exported from Concepts: Smarter Sketching</desc>
  <defs></defs>
  <g id="New_Layer_4" opacity="1.000">
    <path id="STROKE_0f81a092-6206-47ee-92c9-644b2a2453f1" opacity="1.000" fill="none" stroke="#fac141" stroke-width="41.175" stroke-opacity="1.000" stroke-linecap="round" stroke-linejoin="round" d="M -488.675 -1300.791 Q -482.984 -1301.357 -473.379 -1301.876 Q -463.773 -1302.395 -450.994 -1302.193 Q -438.215 -1301.991 -426.895 -1300.001 Q -415.575 -1298.011 -404.304 -1293.276 Q -393.033 -1288.540 -387.222 -1283.375 Q -381.411 -1278.209 -377.616 -1273.256 Q -373.822 -1268.303 -369.395 -1258.087 Q -364.969 -1247.871 -363.178 -1238.246 Q -361.387 -1228.621 -361.303 -1201.328 Q -361.220 -1174.035 -366.014 -1128.456 Q -370.809 -1082.877 -371.286 -1075.775 Q -371.763 -1068.674 -372.105 -1064.248 Q -372.447 -1059.823 -372.271 -1041.157 Q -372.096 -1022.492 -370.960 -1012.434 Q -369.824 -1002.375 -367.825 -992.955 Q -365.826 -983.536 -363.800 -977.042 Q -361.774 -970.548 -356.120 -960.163 Q -350.466 -949.778 -335.116 -932.989 Q -319.766 -916.201 -315.899 -913.207 Q -312.032 -910.213 -309.779 -908.699 Q -307.525 -907.186 -303.294 -904.699 L -288.040 -893.587 "></path>
  </g>
</svg>