<?xml version="1.0" encoding="UTF-8" standalone="yes"?>
<svg xmlns="http://www.w3.org/2000/svg" xmlns:xlink="http://www.w3.org/1999/xlink" width="462.382pt" height="490.430pt" version="1.1" viewBox="-2022.617 -1119.190 462.382 490.430">
  <!--
	Exported with Concepts: Smarter Sketching
	Version: 2744 on iOS 16.3
	https://concepts.app/
	-->
  <title>31E2E38E-8398-41CD-B3A8-35262B8301A2</title>
  <desc>Drawing exported from Concepts: Smarter Sketching</desc>
  <defs></defs>
  <g id="New_Layer_4" opacity="1.000">
    <path id="STROKE_678d6988-bfe2-456c-9bee-63a338d74977" opacity="1.000" fill="none" stroke="#fac141" stroke-width="48.024" stroke-opacity="1.000" stroke-linecap="round" stroke-linejoin="round" d="M -1889.642 -861.506 Q -1888.009 -857.440 -1876.234 -832.999 Q -1864.460 -808.557 -1855.316 -794.236 Q -1846.173 -779.916 -1840.881 -773.903 Q -1835.589 -767.890 -1830.214 -763.168 Q -1824.840 -758.445 -1818.696 -754.874 Q -1812.552 -751.303 -1803.198 -749.182 Q -1793.843 -747.060 -1788.882 -747.201 Q -1783.920 -747.343 -1777.159 -749.115 Q -1770.398 -750.887 -1761.525 -756.729 Q -1752.652 -762.571 -1747.948 -767.292 Q -1743.243 -772.014 -1737.413 -779.934 Q -1731.583 -787.853 -1722.874 -807.569 Q -1714.165 -827.284 -1710.058 -846.362 Q -1705.952 -865.440 -1705.645 -888.641 Q -1705.339 -911.842 -1707.392 -924.633 Q -1709.445 -937.424 -1713.811 -950.535 Q -1718.177 -963.645 -1723.424 -972.807 Q -1728.671 -981.968 -1732.135 -985.987 Q -1735.600 -990.006 -1740.311 -993.609 Q -1745.022 -997.212 -1748.799 -998.804 Q -1752.576 -1000.396 -1757.986 -1000.798 Q -1763.396 -1001.199 -1767.809 -999.848 Q -1772.222 -998.497 -1774.136 -997.200 Q -1776.051 -995.902 -1777.648 -994.064 Q -1779.244 -992.226 -1784.516 -981.237 Q -1789.789 -970.248 -1792.112 -958.436 Q -1794.434 -946.624 -1795.082 -935.734 Q -1795.729 -924.843 -1795.143 -894.228 Q -1794.560 -881.061 -1794.604 -878.047 "></path>
  </g>
</svg>