<?xml version="1.0" encoding="UTF-8" standalone="yes"?>
<svg xmlns="http://www.w3.org/2000/svg" xmlns:xlink="http://www.w3.org/1999/xlink" width="157.110pt" height="209.624pt" version="1.1" viewBox="220.981 1273.176 157.110 209.624">
  <!--
	Exported with Concepts: Smarter Sketching
	Version: 2744 on iOS 16.3
	https://concepts.app/
	-->
  <title>BFC21A53-F49A-455E-958D-961EE3998E51</title>
  <desc>Drawing exported from Concepts: Smarter Sketching</desc>
  <defs></defs>
  <g id="Pen" opacity="1.000">
    <path id="STROKE_d73c5f60-2f91-4c86-b52a-6e284e796b03" opacity="1.000" fill="none" stroke="#fac141" stroke-width="21.865" stroke-opacity="1.000" stroke-linecap="round" stroke-linejoin="round" d="M 335.495 1286.927 L 331.107 1290.014 Q 328.882 1291.619 324.186 1295.422 Q 319.490 1299.226 311.899 1305.685 Q 304.309 1312.145 298.154 1317.491 Q 291.998 1322.837 284.974 1329.223 Q 277.949 1335.609 273.497 1339.848 Q 269.044 1344.087 266.403 1346.674 Q 263.763 1349.261 253.311 1360.303 L 241.663 1373.176 "></path>
    <path id="STROKE_71617c94-069c-42c3-a4e8-904c15393db9" opacity="1.000" fill="none" stroke="#fac141" stroke-width="14.397" stroke-opacity="1.000" stroke-linecap="round" stroke-linejoin="round" d="M 233.515 1375.491 Q 235.897 1377.144 237.306 1378.232 Q 238.716 1379.319 245.074 1384.594 Q 251.431 1389.868 257.661 1394.815 Q 263.891 1399.761 276.499 1409.313 Q 289.108 1418.866 294.915 1423.111 Q 300.722 1427.357 307.844 1432.499 Q 314.966 1437.641 322.231 1442.907 Q 329.497 1448.174 331.612 1449.650 Q 333.728 1451.125 338.699 1454.569 Q 343.670 1458.012 358.543 1468.322 "></path>
    <path id="STROKE_ffceba38-c75e-4eb8-94f9-f37964f20cae" opacity="1.000" fill="none" stroke="#fac141" stroke-width="11.242" stroke-opacity="1.000" stroke-linecap="round" stroke-linejoin="round" d="M 254.056 1385.399 Q 257.923 1384.378 260.685 1383.771 Q 263.448 1383.163 275.265 1380.686 Q 287.082 1378.209 293.513 1376.838 Q 299.944 1375.467 306.505 1373.969 Q 313.067 1372.470 323.429 1370.095 Q 333.791 1367.720 339.823 1366.356 Q 345.856 1364.992 349.845 1364.015 Q 353.835 1363.037 364.395 1360.781 L 368.428 1359.940 "></path>
  </g>
</svg>