<?xml version="1.0" encoding="UTF-8" standalone="yes"?>
<svg xmlns="http://www.w3.org/2000/svg" xmlns:xlink="http://www.w3.org/1999/xlink" width="736.763pt" height="643.694pt" version="1.1" viewBox="614.308 462.064 736.763 643.694">
  <!--
	Exported with Concepts: Smarter Sketching
	Version: 2744 on iOS 16.3
	https://concepts.app/
	-->
  <title>BFC21A53-F49A-455E-958D-961EE3998E51</title>
  <desc>Drawing exported from Concepts: Smarter Sketching</desc>
  <defs></defs>
  <g id="Pen" opacity="1.000">
    <path id="STROKE_d4697c22-c8c7-4ec4-8d1b-780b87eac614" opacity="1.000" fill="none" stroke="#fac141" stroke-width="21.775" stroke-opacity="1.000" stroke-linecap="round" stroke-linejoin="round" d="M 646.100 750.153 Q 649.090 749.623 684.623 746.274 Q 720.156 742.924 739.833 741.535 Q 759.511 740.146 773.476 739.325 Q 787.442 738.504 793.960 738.115 Q 800.478 737.726 809.043 737.132 Q 817.607 736.539 822.589 736.232 Q 827.571 735.925 830.788 735.686 "></path>
    <path id="STROKE_38fb9270-353a-4e67-99f9-39d82dfc65cd" opacity="1.000" fill="none" stroke="#fac141" stroke-width="25.038" stroke-opacity="1.000" stroke-linecap="round" stroke-linejoin="round" d="M 839.588 737.402 Q 839.045 738.319 834.807 746.409 Q 830.570 754.499 826.900 761.232 Q 823.231 767.965 817.584 777.842 Q 811.938 787.720 808.673 793.297 Q 805.408 798.874 803.103 802.848 Q 800.798 806.822 795.192 815.638 Q 789.586 824.455 783.582 833.081 Q 777.577 841.708 773.757 846.259 Q 769.937 850.810 764.700 855.113 Q 759.464 859.416 755.951 860.705 Q 752.438 861.994 751.898 861.955 Q 749.538 861.457 743.603 858.246 Q 737.668 855.035 730.328 848.170 Q 722.989 841.306 718.864 836.817 Q 714.739 832.328 710.012 826.784 Q 705.285 821.240 701.197 816.578 Q 697.109 811.916 694.300 808.932 Q 691.491 805.948 687.348 801.582 Q 683.205 797.217 679.805 793.662 Q 676.406 790.107 668.836 782.360 Q 661.266 774.614 658.045 771.492 Q 654.824 768.370 650.549 764.326 Q 646.274 760.282 638.603 752.845 "></path>
    <path id="STROKE_d610ed34-65fa-493e-a06b-b8c0a54b1cae" opacity="1.000" fill="none" stroke="#fac141" stroke-width="20.189" stroke-opacity="1.000" stroke-linecap="round" stroke-linejoin="round" d="M 1075.068 734.709 Q 1079.074 734.533 1095.447 733.404 Q 1111.820 732.275 1122.584 731.708 Q 1133.347 731.141 1164.675 731.715 Q 1196.003 732.289 1204.460 733.922 Q 1212.916 735.554 1219.411 738.527 Q 1225.905 741.499 1226.776 742.143 Q 1227.647 742.788 1229.550 744.823 Q 1231.452 746.858 1232.042 748.873 Q 1232.631 750.889 1232.861 753.189 Q 1233.090 755.488 1232.089 762.137 Q 1231.088 768.787 1229.823 772.612 Q 1228.557 776.438 1225.526 783.099 Q 1222.495 789.761 1216.567 799.939 Q 1210.639 810.118 1206.861 815.586 Q 1203.083 821.054 1196.275 829.117 Q 1189.467 837.180 1186.271 840.113 Q 1183.075 843.046 1178.874 846.107 Q 1174.672 849.168 1170.602 851.048 Q 1166.532 852.928 1158.871 854.591 Q 1158.391 854.590 1155.324 853.836 Q 1152.258 853.082 1143.010 847.662 Q 1133.762 842.243 1130.745 839.404 Q 1127.727 836.566 1122.414 830.576 Q 1117.100 824.587 1111.984 818.068 Q 1106.869 811.549 1105.007 809.033 Q 1103.145 806.517 1097.561 798.375 Q 1091.977 790.232 1088.274 784.303 Q 1084.571 778.374 1081.936 773.812 Q 1079.300 769.251 1078.005 766.921 Q 1076.709 764.591 1073.710 759.064 Q 1070.711 753.537 1068.537 749.376 Q 1066.364 745.215 1064.844 742.122 Q 1063.324 739.030 1060.778 733.865 "></path>
    <path id="STROKE_6cdef01a-0f04-428b-a888-1c8e9a9ef76a" opacity="1.000" fill="none" stroke="#fac141" stroke-width="18.632" stroke-opacity="1.000" stroke-linecap="round" stroke-linejoin="round" d="M 856.554 1039.487 Q 855.834 1040.662 855.211 1041.514 Q 854.588 1042.366 854.207 1042.879 Q 853.825 1043.391 851.728 1046.831 Q 849.631 1050.270 847.012 1055.603 Q 844.392 1060.937 843.365 1064.148 Q 842.338 1067.360 842.036 1069.401 Q 841.733 1071.443 841.890 1073.217 Q 842.047 1074.991 843.023 1077.421 Q 843.998 1079.851 845.347 1081.482 Q 846.696 1083.114 848.799 1084.526 Q 850.902 1085.939 856.915 1087.063 Q 862.928 1088.188 867.131 1087.932 Q 871.334 1087.675 875.022 1087.097 Q 878.711 1086.519 887.057 1084.395 Q 895.404 1082.270 900.002 1080.921 Q 904.599 1079.573 908.184 1078.632 Q 911.768 1077.692 920.806 1075.783 Q 929.845 1073.873 935.469 1073.052 Q 941.093 1072.230 944.080 1071.974 Q 947.066 1071.718 953.023 1071.554 Q 956.039 1071.331 962.182 1071.762 Q 968.326 1072.193 973.016 1072.860 Q 977.706 1073.527 980.717 1074.073 Q 983.728 1074.618 987.808 1075.514 Q 991.887 1076.411 996.911 1077.819 Q 1001.936 1079.228 1005.603 1080.235 Q 1009.269 1081.243 1013.563 1082.267 Q 1017.857 1083.291 1019.766 1083.663 Q 1021.675 1084.036 1029.370 1084.969 Q 1037.065 1085.901 1041.758 1086.145 Q 1046.451 1086.388 1052.298 1085.935 Q 1058.145 1085.482 1061.132 1084.882 Q 1064.120 1084.282 1067.592 1083.309 Q 1071.064 1082.335 1075.622 1080.466 Q 1080.179 1078.597 1084.090 1076.153 Q 1088.001 1073.710 1090.286 1071.812 Q 1092.571 1069.914 1093.669 1068.749 Q 1094.768 1067.584 1095.870 1066.153 Q 1096.972 1064.722 1098.733 1062.122 Q 1100.495 1059.522 1102.067 1056.527 Q 1103.639 1053.533 1104.171 1052.046 Q 1104.703 1050.560 1105.484 1047.260 Q 1106.266 1043.961 1106.489 1042.589 Q 1106.712 1041.216 1106.709 1039.877 Q 1106.706 1038.538 1106.187 1033.866 Q 1105.668 1029.194 1105.041 1026.337 Q 1104.415 1023.480 1104.072 1020.612 "></path>
    <path id="STROKE_c0b3a7a7-db69-4aa4-9f2a-8dcf604811e9" opacity="1.000" fill="none" stroke="#fac141" stroke-width="21.747" stroke-opacity="1.000" stroke-linecap="round" stroke-linejoin="round" d="M 685.109 585.720 Q 686.654 582.110 694.120 568.149 Q 701.586 554.189 709.903 539.901 Q 718.221 525.614 723.569 517.967 Q 728.918 510.320 734.366 504.234 Q 739.814 498.147 743.205 495.151 Q 746.596 492.155 751.713 488.946 Q 756.831 485.738 760.205 484.437 Q 763.579 483.135 764.837 482.814 Q 766.094 482.493 767.880 482.300 Q 769.666 482.107 771.235 482.160 Q 772.804 482.213 773.315 482.165 Q 773.827 482.117 780.788 484.007 Q 787.749 485.898 794.081 489.447 Q 800.413 492.997 802.622 494.556 Q 804.831 496.115 808.682 499.097 Q 812.533 502.079 819.581 508.712 Q 826.628 515.345 832.522 521.781 Q 838.415 528.218 841.417 531.726 Q 844.417 535.234 849.129 541.171 Q 853.840 547.109 863.465 560.097 Q 873.090 573.086 876.455 577.152 "></path>
    <path id="STROKE_317551c8-e1e3-466a-b3a3-2e35352f2d64" opacity="1.000" fill="none" stroke="#fac141" stroke-width="29.513" stroke-opacity="1.000" stroke-linecap="round" stroke-linejoin="round" d="M 1128.809 606.777 L 1131.391 602.517 Q 1132.742 600.128 1141.370 587.321 Q 1149.999 574.513 1158.416 562.390 Q 1166.833 550.266 1174.172 540.575 Q 1181.511 530.884 1182.367 529.864 Q 1183.224 528.843 1190.966 520.741 Q 1198.709 512.639 1203.836 508.792 Q 1208.964 504.946 1211.546 503.527 Q 1214.128 502.108 1216.828 501.082 Q 1219.528 500.056 1222.850 499.373 Q 1226.173 498.690 1227.577 498.638 Q 1228.980 498.587 1230.329 498.733 Q 1231.677 498.879 1236.638 500.618 Q 1241.599 502.357 1245.183 504.542 Q 1248.766 506.727 1252.112 509.475 Q 1255.458 512.224 1260.546 517.532 Q 1265.633 522.841 1270.297 529.069 Q 1274.960 535.297 1277.138 538.546 Q 1279.316 541.795 1283.738 548.800 Q 1288.160 555.806 1291.451 561.310 Q 1294.741 566.815 1295.545 568.160 Q 1296.349 569.506 1299.617 575.466 Q 1302.886 581.426 1303.946 583.429 Q 1305.005 585.432 1308.445 591.912 Q 1310.240 594.532 1314.606 602.302 "></path>
    <path id="STROKE_acdefcb2-88c5-40fd-af8f-0367f9fef44c" opacity="1.000" fill="none" stroke="#fac141" stroke-width="10.608" stroke-opacity="1.000" stroke-linecap="round" stroke-linejoin="round" d="M 737.929 603.030 Q 741.192 598.063 743.210 595.337 Q 745.228 592.612 746.653 590.713 Q 748.077 588.815 750.953 584.957 Q 753.828 581.099 756.228 578.027 Q 758.629 574.955 760.343 572.978 Q 762.058 571.001 763.241 569.759 Q 764.425 568.518 765.554 567.475 Q 766.684 566.433 771.718 561.331 Q 775.250 558.944 778.041 557.307 Q 780.832 555.670 783.255 554.515 Q 785.678 553.361 786.197 553.162 L 787.115 552.688 Q 787.901 551.841 789.818 549.897 Q 791.734 547.952 792.946 546.817 Q 794.159 545.682 794.666 545.582 Q 795.174 545.483 796.727 545.090 Q 798.281 544.698 799.445 543.607 "></path>
    <path id="STROKE_88f5e497-c246-44f4-932d-b36e4c56b7fe" opacity="1.000" fill="none" stroke="#fac141" stroke-width="10.007" stroke-opacity="1.000" stroke-linecap="round" stroke-linejoin="round" d="M 797.225 544.162 Q 807.898 569.837 810.793 576.552 Q 813.687 583.268 813.686 584.043 Q 813.685 584.818 815.810 589.229 Q 817.934 593.639 820.120 599.318 "></path>
    <path id="STROKE_b59cd37c-7710-49bb-83dd-e517b348ce48" opacity="1.000" fill="none" stroke="#fac141" stroke-width="12.822" stroke-opacity="1.000" stroke-linecap="round" stroke-linejoin="round" d="M 820.675 600.047 Q 802.888 600.303 788.851 600.234 Q 774.814 600.166 770.278 600.133 Q 765.743 600.101 763.901 599.914 Q 762.060 599.727 758.009 599.754 Q 753.958 599.781 746.625 599.874 "></path>
    <path id="STROKE_a720d9d9-cf4f-450c-b0b2-07ac03c2c344" opacity="1.000" fill="none" stroke="#fac141" stroke-width="11.119" stroke-opacity="1.000" stroke-linecap="round" stroke-linejoin="round" d="M 1193.748 601.747 Q 1201.070 588.456 1201.178 588.294 Q 1201.286 588.133 1207.101 577.402 Q 1212.916 566.671 1213.210 566.259 Q 1213.504 565.847 1221.268 551.829 "></path>
    <path id="STROKE_1fb6d6cb-e025-4b38-ba27-fbcb79ff392f" opacity="1.000" fill="none" stroke="#fac141" stroke-width="13.677" stroke-opacity="1.000" stroke-linecap="round" stroke-linejoin="round" d="M 1219.557 562.617 Q 1222.604 565.938 1226.417 570.607 Q 1230.229 575.276 1233.191 578.947 Q 1236.153 582.617 1236.172 582.676 Q 1236.190 582.734 1239.308 586.758 Q 1242.425 590.782 1245.013 594.188 Q 1247.602 597.594 1248.709 598.575 L 1256.975 607.887 "></path>
    <path id="STROKE_54f3c058-e086-47b0-b759-a2c1b32f8b53" opacity="1.000" fill="none" stroke="#fac141" stroke-width="12.933" stroke-opacity="1.000" stroke-linecap="round" stroke-linejoin="round" d="M 1256.605 610.488 Q 1253.163 609.975 1246.236 609.130 Q 1239.309 608.284 1227.570 607.044 Q 1215.831 605.804 1211.488 605.334 Q 1207.145 604.864 1205.556 604.593 Q 1203.967 604.323 1199.551 603.809 Q 1195.136 603.295 1188.891 602.649 "></path>
    <path id="STROKE_743939b2-8d6c-4630-9a35-a91bdc9891d5" opacity="1.000" fill="none" stroke="#fac141" stroke-width="9.215" stroke-opacity="1.000" stroke-linecap="round" stroke-linejoin="round" d="M 955.501 898.827 Q 959.353 898.341 962.491 898.155 Q 965.630 897.968 974.437 897.696 Q 983.244 897.425 988.976 897.399 Q 994.708 897.374 999.494 897.313 Q 1004.280 897.253 1006.495 897.433 Q 1008.709 897.613 1009.232 897.690 Q 1009.754 897.768 1010.342 897.818 Q 1010.929 897.869 1016.556 898.598 Q 1022.182 899.328 1023.687 899.373 Q 1026.181 898.640 1027.242 898.253 Q 1028.304 897.866 1029.757 897.492 Q 1031.210 897.119 1032.795 896.696 Q 1034.380 896.274 1036.952 895.496 "></path>
    <path id="STROKE_03b0301b-7801-40d8-936b-5ca10fb8d534" opacity="1.000" fill="none" stroke="#fac141" stroke-width="11.196" stroke-opacity="1.000" stroke-linecap="round" stroke-linejoin="round" d="M 966.463 908.331 Q 967.276 910.227 967.750 911.565 Q 972.876 921.261 974.371 924.019 Q 975.866 926.777 976.427 927.855 Q 976.988 928.933 977.505 929.725 Q 978.022 930.518 979.415 932.087 Q 980.809 933.656 983.361 936.139 Q 985.914 938.621 986.517 939.245 Q 987.120 939.869 990.376 943.085 Q 991.344 943.534 993.411 944.782 Q 995.478 946.030 1001.800 949.889 "></path>
    <path id="STROKE_595e7004-f22c-4f8a-a43e-08fe9b558239" opacity="1.000" fill="none" stroke="#fac141" stroke-width="12.698" stroke-opacity="1.000" stroke-linecap="round" stroke-linejoin="round" d="M 1027.655 900.700 L 1026.158 902.386 Q 1025.554 904.386 1024.382 905.872 Q 1023.211 907.358 1021.363 909.880 Q 1019.516 912.403 1016.542 915.865 Q 1013.569 919.328 1011.319 921.305 Q 1009.069 923.283 1006.541 925.502 Q 1004.013 927.721 1002.020 929.655 Q 1000.028 931.589 999.654 931.733 Q 999.279 931.876 997.400 933.022 Q 995.520 934.168 991.948 936.083 "></path>
  </g>
</svg>