<svg xmlns="http://www.w3.org/2000/svg" viewBox="-1270.061 443.299 2441.345 1263.068">
    <path id="STROKE_2da93988-2a66-4214-bd3b-951919ea04b8" opacity="1.000" fill="none" stroke="#fac141" stroke-width="20.266" stroke-opacity="1.000" stroke-linecap="round" stroke-linejoin="round" d="M -1176.260 478.262 Q -1180.782 478.639 -1183.717 478.992 Q -1186.651 479.345 -1190.352 480.024 Q -1194.052 480.703 -1198.491 481.917 Q -1202.930 483.131 -1206.333 484.658 Q -1209.736 486.185 -1213.624 488.875 Q -1217.512 491.564 -1222.142 497.056 Q -1226.773 502.548 -1228.869 506.763 Q -1230.966 510.979 -1232.525 517.178 Q -1234.085 523.377 -1234.163 532.141 Q -1234.240 540.905 -1232.169 550.409 Q -1230.097 559.913 -1224.678 571.473 Q -1219.259 583.033 -1212.980 591.135 Q -1206.702 599.237 -1198.416 606.100 Q -1190.130 612.963 -1181.290 617.273 Q -1172.451 621.583 -1165.353 623.406 Q -1158.256 625.229 -1154.024 625.627 Q -1149.791 626.025 -1146.630 626.025 Q -1143.469 626.026 -1137.204 625.284 Q -1130.940 624.542 -1125.008 622.997 Q -1119.077 621.452 -1110.085 617.859 Q -1101.093 614.265 -1088.387 606.852 Q -1075.681 599.438 -1067.866 593.961 Q -1060.051 588.484 -1048.602 580.300 Q -1037.154 572.116 -1024.966 564.225 Q -1012.778 556.334 -1002.629 551.255 Q -992.479 546.175 -982.840 542.966 Q -973.200 539.756 -964.151 538.357 Q -955.102 536.957 -945.932 537.508 Q -936.763 538.059 -930.341 539.771 Q -923.919 541.482 -918.533 543.864 Q -913.148 546.246 -907.636 549.875 Q -902.125 553.504 -897.628 557.606 Q -893.132 561.709 -887.883 568.377 Q -882.635 575.044 -876.387 586.422 Q -870.139 597.800 -865.712 609.326 Q -861.285 620.851 -854.269 649.397 Q -847.254 677.944 -843.515 697.628 Q -839.776 717.312 -836.247 735.181 Q -832.718 753.051 -830.415 762.802 Q -828.112 772.554 -825.807 781.044 Q -823.501 789.533 -815.911 811.629 Q -808.320 833.724 -798.595 854.367 Q -788.870 875.010 -782.818 885.168 Q -776.766 895.325 -770.591 904.421 Q -764.417 913.516 -753.000 926.946 Q -741.583 940.375 -734.172 947.322 Q -726.762 954.268 -721.152 958.812 Q -715.542 963.356 -705.712 969.613 Q -695.881 975.869 -689.777 978.789 Q -683.672 981.709 -675.970 984.234 Q -668.269 986.760 -658.974 988.031 Q -649.678 989.302 -643.460 988.816 Q -637.241 988.330 -633.237 987.216 Q -629.232 986.102 -626.588 984.956 Q -623.944 983.810 -619.617 980.782 Q -615.290 977.754 -613.287 975.880 Q -611.285 974.007 -606.954 968.395 Q -602.623 962.784 -599.783 957.309 Q -596.942 951.833 -591.695 928.424 Q -586.447 905.014 -586.086 894.200 Q -585.725 883.386 -585.869 871.552 Q -586.012 859.717 -586.730 844.161 Q -587.447 828.604 -588.155 817.585 Q -588.862 806.565 -589.170 800.661 Q -589.478 794.756 -589.904 782.912 Q -590.331 771.068 -589.849 754.040 Q -589.367 737.013 -588.312 728.126 Q -587.256 719.239 -586.018 713.071 Q -584.780 706.904 -583.925 703.481 Q -583.071 700.058 -580.051 691.608 Q -577.031 683.158 -574.630 678.273 Q -572.229 673.388 -568.505 667.538 Q -564.782 661.689 -556.703 653.416 Q -548.625 645.144 -540.557 639.994 Q -532.490 634.844 -523.600 631.500 Q -514.710 628.156 -504.231 626.446 Q -493.751 624.736 -472.479 626.711 Q -451.208 628.685 -437.290 632.609 Q -423.371 636.534 -395.462 648.778 Q -367.552 661.022 -357.016 666.763 Q -346.480 672.504 -328.947 683.277 Q -311.414 694.049 -298.591 703.041 Q -285.769 712.033 -275.390 720.125 Q -265.011 728.216 -250.749 740.690 Q -236.487 753.164 -215.667 775.239 Q -194.848 797.315 -182.294 813.802 Q -169.740 830.290 -158.106 850.248 Q -146.473 870.205 -140.852 883.802 Q -135.232 897.399 -132.590 906.772 Q -129.948 916.145 -128.470 924.747 Q -126.992 933.349 -126.747 944.857 Q -126.502 956.365 -129.795 969.936 Q -133.089 983.506 -139.443 992.577 Q -145.796 1001.649 -148.076 1003.388 Q -150.355 1005.127 -153.108 1006.477 Q -155.861 1007.828 -158.589 1008.512 Q -161.317 1009.197 -167.113 1008.969 Q -172.910 1008.740 -183.001 1004.314 Q -193.091 999.888 -201.518 992.565 Q -209.944 985.241 -216.334 977.056 Q -222.724 968.871 -226.989 961.522 Q -231.254 954.172 -233.575 949.134 Q -235.895 944.095 -238.478 937.172 Q -241.060 930.249 -243.111 922.510 Q -245.162 914.771 -246.154 909.193 Q -247.146 903.615 -246.464 871.868 Q -245.781 840.121 -243.763 830.802 Q -241.744 821.483 -235.854 806.191 Q -229.965 790.899 -225.887 783.540 Q -221.808 776.182 -216.918 769.230 Q -212.028 762.278 -206.389 755.924 Q -200.750 749.570 -194.517 744.067 Q -188.285 738.563 -177.557 731.633 Q -166.830 724.703 -153.150 719.151 Q -139.471 713.599 -132.316 711.980 Q -125.162 710.361 -116.309 709.814 Q -107.457 709.267 -101.804 709.733 Q -96.151 710.198 -86.902 712.820 Q -77.653 715.442 -70.538 719.249 Q -63.423 723.056 -57.898 727.515 Q -52.374 731.974 -47.395 737.563 Q -42.417 743.152 -37.554 751.083 Q -32.690 759.013 -28.959 768.001 Q -25.227 776.989 -21.605 791.588 Q -17.983 806.187 -16.196 819.658 Q -14.410 833.129 -13.534 852.230 Q -12.657 871.331 -12.583 892.927 Q -12.508 914.523 -12.540 934.793 Q -12.572 955.063 -12.404 985.115 Q -12.235 1015.167 -11.795 1034.054 Q -11.356 1052.941 -11.040 1064.682 Q -10.725 1076.422 -10.327 1088.844 Q -9.929 1101.265 -9.142 1118.582 Q -8.355 1135.898 -6.743 1158.215 Q -5.131 1180.532 -2.495 1209.332 Q 0.141 1238.131 2.040 1252.884 Q 3.938 1267.636 5.484 1276.885 Q 7.030 1286.133 13.263 1311.412 Q 19.497 1336.691 24.943 1352.063 Q 30.390 1367.435 35.115 1377.997 Q 39.841 1388.559 45.547 1399.093 Q 51.253 1409.626 60.888 1423.610 Q 70.523 1437.593 82.389 1450.500 Q 94.254 1463.407 102.413 1470.326 Q 110.573 1477.244 118.890 1482.970 Q 127.207 1488.696 138.978 1494.572 Q 150.749 1500.447 159.961 1503.328 Q 169.173 1506.209 173.762 1507.154 Q 178.351 1508.100 182.273 1508.598 Q 186.194 1509.096 192.102 1509.388 Q 198.009 1509.681 213.790 1508.066 Q 229.571 1506.451 238.247 1504.409 Q 246.922 1502.368 253.386 1500.275 Q 259.849 1498.183 268.863 1494.579 Q 277.876 1490.974 284.822 1487.946 Q 291.768 1484.918 295.713 1483.157 Q 299.657 1481.396 308.565 1477.210 Q 317.474 1473.025 324.899 1469.914 Q 332.325 1466.802 346.447 1461.934 Q 360.569 1457.066 369.267 1455.054 Q 377.966 1453.041 385.532 1452.312 Q 393.099 1451.583 397.817 1451.644 Q 402.534 1451.705 410.214 1452.720 Q 417.893 1453.734 429.382 1457.588 Q 440.871 1461.442 451.987 1468.489 Q 463.104 1475.536 470.242 1482.249 Q 477.380 1488.963 481.710 1494.214 Q 486.040 1499.466 490.580 1506.498 Q 495.120 1513.530 503.484 1530.653 Q 511.848 1547.776 518.481 1563.420 Q 525.115 1579.063 528.685 1587.235 Q 532.256 1595.407 535.134 1601.425 Q 538.012 1607.444 541.332 1613.687 Q 544.653 1619.930 551.211 1629.856 Q 557.768 1639.781 564.455 1647.084 Q 571.143 1654.388 577.280 1659.004 Q 583.417 1663.620 590.843 1666.787 Q 598.268 1669.955 602.835 1670.818 Q 607.402 1671.680 612.372 1671.439 Q 617.342 1671.197 622.320 1669.636 Q 627.298 1668.075 632.054 1665.141 Q 636.809 1662.207 640.631 1658.254 Q 644.453 1654.302 648.337 1647.690 Q 652.221 1641.078 655.093 1631.043 Q 657.966 1621.007 658.709 1611.426 Q 659.453 1601.845 658.279 1589.069 Q 657.105 1576.293 655.518 1568.600 Q 653.932 1560.906 647.328 1540.944 Q 640.724 1520.982 634.145 1506.536 Q 627.566 1492.090 620.941 1479.624 Q 614.317 1467.158 605.057 1451.047 Q 595.797 1434.937 590.790 1426.516 Q 585.783 1418.095 578.389 1405.825 Q 570.995 1393.556 565.520 1384.458 Q 560.046 1375.360 549.104 1356.423 Q 538.163 1337.487 530.213 1322.111 Q 522.264 1306.735 518.230 1297.876 Q 514.197 1289.016 512.436 1284.917 Q 510.675 1280.817 505.461 1266.414 Q 500.247 1252.012 493.861 1222.630 Q 487.474 1193.248 486.674 1179.974 Q 485.874 1166.699 486.182 1158.129 Q 486.490 1149.559 489.035 1133.562 Q 491.579 1117.564 496.392 1103.649 Q 501.205 1089.734 509.192 1076.590 Q 517.178 1063.446 520.864 1059.498 Q 524.551 1055.551 531.697 1050.107 Q 538.844 1044.663 545.334 1041.758 Q 551.825 1038.854 556.153 1037.789 Q 560.481 1036.723 565.232 1036.363 Q 569.983 1036.002 575.660 1036.606 Q 581.337 1037.210 588.655 1039.723 Q 595.972 1042.235 607.897 1050.465 Q 619.822 1058.696 627.236 1066.624 Q 634.650 1074.552 641.061 1083.475 Q 647.473 1092.397 654.284 1104.638 Q 661.095 1116.880 664.427 1124.003 Q 667.759 1131.126 673.719 1145.766 Q 679.680 1160.406 682.786 1168.870 Q 685.893 1177.335 691.434 1192.950 Q 696.976 1208.565 704.904 1230.272 Q 712.833 1251.979 717.280 1263.286 Q 721.726 1274.594 731.854 1297.960 Q 741.981 1321.327 752.362 1341.664 Q 762.743 1362.000 770.695 1375.175 Q 778.647 1388.350 787.261 1400.155 Q 795.875 1411.960 806.826 1423.686 Q 817.778 1435.412 824.177 1441.040 Q 830.576 1446.668 838.751 1452.322 Q 846.927 1457.976 857.507 1463.738 Q 868.088 1469.500 876.289 1473.130 Q 884.491 1476.760 895.331 1480.498 Q 906.171 1484.235 926.017 1490.695 Q 945.863 1497.154 963.339 1503.626 Q 980.814 1510.097 996.908 1517.680 Q 1013.001 1525.263 1020.134 1529.326 Q 1027.267 1533.389 1030.638 1535.436 Q 1034.010 1537.484 1042.639 1543.045 Q 1051.269 1548.605 1059.590 1554.155 Q 1067.911 1559.705 1076.528 1565.597 Q 1085.145 1571.489 1088.767 1573.946 Q 1092.389 1576.402 1095.229 1578.208 Q 1098.068 1580.014 1100.982 1581.725 Q 1103.896 1583.435 1105.407 1584.345 Q 1106.917 1585.256 1110.564 1587.148 Q 1114.211 1589.040 1117.095 1590.449 Q 1119.978 1591.859 1122.254 1592.923 Q 1124.530 1593.987 1130.240 1597.175 L 1137.696 1602.061 "></path>
</svg>
